<svg width="1181" height="881" viewBox="0 0 1181 881" fill="none" xmlns="http://www.w3.org/2000/svg">
<path d="M1180.97 773.652H0.979492V774.242H1180.97V773.652Z" fill="#EBEBEB"/>
<path d="M1062.74 811.625H984.573V812.215H1062.74V811.625Z" fill="#EBEBEB"/>
<path d="M782.653 818.043H762.144V818.633H782.653V818.043Z" fill="#EBEBEB"/>
<path d="M982.213 789.723H936.925V790.313H982.213V789.723Z" fill="#EBEBEB"/>
<path d="M226.712 793.688H124.784V794.277H226.712V793.688Z" fill="#EBEBEB"/>
<path d="M262.678 793.688H247.739V794.277H262.678V793.688Z" fill="#EBEBEB"/>
<path d="M532.329 803.646H311.246V804.236H532.329V803.646Z" fill="#EBEBEB"/>
<path d="M560.295 668.397H104.606C101.036 668.391 97.6149 666.968 95.0928 664.442C92.5708 661.915 91.1543 658.491 91.1543 654.921V14.3516C91.1854 10.8023 92.6156 7.40852 95.1343 4.9075C97.653 2.40649 101.057 1.00022 104.606 0.994141H560.295C563.869 0.994141 567.297 2.41388 569.824 4.94102C572.351 7.46817 573.771 10.8957 573.771 14.4696V654.921C573.771 658.495 572.351 661.923 569.824 664.45C567.297 666.977 563.869 668.397 560.295 668.397ZM104.606 1.46614C101.193 1.47239 97.9214 2.83272 95.51 5.24854C93.0986 7.66436 91.7443 10.9383 91.7443 14.3516V654.921C91.7443 658.335 93.0986 661.609 95.51 664.024C97.9214 666.44 101.193 667.801 104.606 667.807H560.295C563.711 667.801 566.984 666.441 569.4 664.026C571.815 661.611 573.174 658.337 573.181 654.921V14.3516C573.174 10.9361 571.815 7.66225 569.4 5.2471C566.984 2.83195 563.711 1.47238 560.295 1.46614H104.606Z" fill="#EBEBEB"/>
<path d="M1070.78 668.397H615.07C611.498 668.391 608.074 666.969 605.549 664.443C603.023 661.917 601.601 658.493 601.595 654.921V14.3516C601.632 10.8001 603.067 7.40639 605.59 4.90603C608.112 2.40567 611.519 1.00015 615.07 0.994141H1070.78C1074.33 1.00642 1077.73 2.41544 1080.24 4.91579C1082.75 7.41614 1084.18 10.8064 1084.21 14.3516V654.921C1084.21 658.487 1082.8 661.908 1080.28 664.433C1077.76 666.959 1074.35 668.384 1070.78 668.397ZM615.07 1.46614C611.655 1.47238 608.381 2.83195 605.966 5.2471C603.551 7.66225 602.191 10.9361 602.185 14.3516V654.921C602.191 658.337 603.551 661.611 605.966 664.026C608.381 666.441 611.655 667.801 615.07 667.807H1070.78C1074.2 667.801 1077.47 666.441 1079.89 664.026C1082.3 661.611 1083.66 658.337 1083.67 654.921V14.3516C1083.66 10.9361 1082.3 7.66225 1079.89 5.2471C1077.47 2.83195 1074.2 1.47238 1070.78 1.46614H615.07Z" fill="#EBEBEB"/>
<path d="M411.616 215.753V38.7539H140.219V751.468H175.618V88.4787L303.482 74.1536L304.048 74.7672L304.638 74.0356L368.169 66.9557L368.877 67.7345L369.632 66.7905L404.536 62.8021V215.753H366.777V234.632H447.016V215.753H411.616ZM228.859 51.0966L250.099 72.9972L206.298 77.906L228.859 51.0966ZM200.209 74.1536L179.536 45.8339H224.045L200.209 74.1536ZM233.603 45.8339H277.097L256.141 68.9381L233.603 45.8339ZM404.536 48.8074V55.675L399.014 56.2886L404.536 48.8074ZM392.878 52.7014L386.53 45.8339H397.928L392.878 52.7014ZM377.208 45.8339L368.499 56.7606L358.517 45.8339H377.208ZM349.195 45.8339L338.693 59.0261L327.176 45.8339H349.195ZM317.949 45.8339L303.6 63.9113L286.679 45.8339H317.949ZM175.618 52.4654L195.182 79.1568L175.618 81.3516V52.4654ZM263.315 71.5104L281.817 51.0494L297.393 67.6873L263.315 71.5104ZM322.598 51.3562L333.359 63.6517L310.845 66.1769L322.598 51.3562ZM345.112 62.3537L353.915 51.309L362.269 60.4421L345.112 62.3537ZM381.928 51.2854L387.733 57.6338L375.933 58.9553L381.928 51.2854Z" fill="#E0E0E0"/>
<path d="M331.377 251.152H281.817V227.552H274.737V251.152H227.538V206.312H218.098V699.549H340.817V220.472H331.377V251.152ZM274.737 288.912H227.538V262.952H274.737V288.912ZM331.377 288.912H281.817V262.952H331.377V288.912Z" fill="#E0E0E0"/>
<path d="M1069.98 772.707V651.971H1059.67V594.434H1044.56V394.402H1022.73V368.584L976.171 346.849V320.842H969.705V394.402H960.666V594.434H951.651V489.25H927.131V435.041H920.287V594.434H901.666V533.783H889.394V518.278H861.004V465.367H845.452V427.938H826.336V373.422H819.515V427.938H800.4V465.367H784.847V518.278H756.457V533.783H744.208V594.434H729.671V518.278H701.28V354.401H692.242V336.323H631.59V354.401H618.681V473.131H567.045V484.743H547.693V493.781H567.045V540.226H512.859V385.364H501.225V352.442H476.067V235.646H468.964V352.442H450.91V385.364H344.97V374.531H338.528V448.092H329.489V449.39H324.061V522.951H315.022V542.94H295.93V488.754H289.086V617.798H281.487V563.59H274.643V648.124H270.466V587.473H258.217V571.991H229.827V519.08H214.275V481.651H195.159V427.112H188.338V481.651H169.222V519.08H153.67V571.991H125.28V587.473H113.031V646.85H110.813V648.124H104.748V772.707H1069.98Z" fill="#EBEBEB"/>
<path d="M411.404 392.609H404.088V399.925H411.404V392.609Z" fill="#F5F5F5"/>
<path d="M411.404 404.857H404.088V412.173H411.404V404.857Z" fill="#F5F5F5"/>
<path d="M411.404 453.898H404.088V461.214H411.404V453.898Z" fill="#F5F5F5"/>
<path d="M411.404 466.17H404.088V473.486H411.404V466.17Z" fill="#F5F5F5"/>
<path d="M411.404 478.418H404.088V485.734H411.404V478.418Z" fill="#F5F5F5"/>
<path d="M411.404 515.211H404.088V522.527H411.404V515.211Z" fill="#F5F5F5"/>
<path d="M411.404 527.459H404.088V534.775H411.404V527.459Z" fill="#F5F5F5"/>
<path d="M423.015 441.65H415.699V448.966H423.015V441.65Z" fill="#F5F5F5"/>
<path d="M423.015 453.898H415.699V461.214H423.015V453.898Z" fill="#F5F5F5"/>
<path d="M423.015 466.17H415.699V473.486H423.015V466.17Z" fill="#F5F5F5"/>
<path d="M423.015 478.418H415.699V485.734H423.015V478.418Z" fill="#F5F5F5"/>
<path d="M423.015 490.689H415.699V498.005H423.015V490.689Z" fill="#F5F5F5"/>
<path d="M423.015 515.211H415.699V522.527H423.015V515.211Z" fill="#F5F5F5"/>
<path d="M423.015 527.459H415.699V534.775H423.015V527.459Z" fill="#F5F5F5"/>
<path d="M434.626 392.609H427.31V399.925H434.626V392.609Z" fill="#F5F5F5"/>
<path d="M434.626 404.857H427.31V412.173H434.626V404.857Z" fill="#F5F5F5"/>
<path d="M434.626 417.129H427.31V424.445H434.626V417.129Z" fill="#F5F5F5"/>
<path d="M434.626 429.379H427.31V436.695H434.626V429.379Z" fill="#F5F5F5"/>
<path d="M434.626 441.65H427.31V448.966H434.626V441.65Z" fill="#F5F5F5"/>
<path d="M434.626 453.898H427.31V461.214H434.626V453.898Z" fill="#F5F5F5"/>
<path d="M434.626 466.17H427.31V473.486H434.626V466.17Z" fill="#F5F5F5"/>
<path d="M434.626 478.418H427.31V485.734H434.626V478.418Z" fill="#F5F5F5"/>
<path d="M434.626 490.689H427.31V498.005H434.626V490.689Z" fill="#F5F5F5"/>
<path d="M434.626 502.939H427.31V510.255H434.626V502.939Z" fill="#F5F5F5"/>
<path d="M434.626 527.459H427.31V534.775H434.626V527.459Z" fill="#F5F5F5"/>
<path d="M446.237 392.609H438.921V399.925H446.237V392.609Z" fill="#F5F5F5"/>
<path d="M446.237 404.857H438.921V412.173H446.237V404.857Z" fill="#F5F5F5"/>
<path d="M446.237 417.129H438.921V424.445H446.237V417.129Z" fill="#F5F5F5"/>
<path d="M446.237 429.379H438.921V436.695H446.237V429.379Z" fill="#F5F5F5"/>
<path d="M446.237 441.65H438.921V448.966H446.237V441.65Z" fill="#F5F5F5"/>
<path d="M446.237 453.898H438.921V461.214H446.237V453.898Z" fill="#F5F5F5"/>
<path d="M446.237 466.17H438.921V473.486H446.237V466.17Z" fill="#F5F5F5"/>
<path d="M446.237 576.5H438.921V583.816H446.237V576.5Z" fill="#F5F5F5"/>
<path d="M457.848 392.609H450.532V399.925H457.848V392.609Z" fill="#F5F5F5"/>
<path d="M457.848 404.857H450.532V412.173H457.848V404.857Z" fill="#F5F5F5"/>
<path d="M457.848 417.129H450.532V424.445H457.848V417.129Z" fill="#F5F5F5"/>
<path d="M457.848 429.379H450.532V436.695H457.848V429.379Z" fill="#F5F5F5"/>
<path d="M457.848 441.65H450.532V448.966H457.848V441.65Z" fill="#F5F5F5"/>
<path d="M457.848 453.898H450.532V461.214H457.848V453.898Z" fill="#F5F5F5"/>
<path d="M457.848 466.17H450.532V473.486H457.848V466.17Z" fill="#F5F5F5"/>
<path d="M457.848 478.418H450.532V485.734H457.848V478.418Z" fill="#F5F5F5"/>
<path d="M457.848 551.979H450.532V559.294H457.848V551.979Z" fill="#F5F5F5"/>
<path d="M457.848 564.25H450.532V571.566H457.848V564.25Z" fill="#F5F5F5"/>
<path d="M457.848 576.5H450.532V583.816H457.848V576.5Z" fill="#F5F5F5"/>
<path d="M457.848 588.771H450.532V596.087H457.848V588.771Z" fill="#F5F5F5"/>
<path d="M457.848 637.812H450.532V645.128H457.848V637.812Z" fill="#F5F5F5"/>
<path d="M469.483 392.609H462.167V399.925H469.483V392.609Z" fill="#F5F5F5"/>
<path d="M469.483 404.857H462.167V412.173H469.483V404.857Z" fill="#F5F5F5"/>
<path d="M469.483 417.129H462.167V424.445H469.483V417.129Z" fill="#F5F5F5"/>
<path d="M469.483 429.379H462.167V436.695H469.483V429.379Z" fill="#F5F5F5"/>
<path d="M469.483 441.65H462.167V448.966H469.483V441.65Z" fill="#F5F5F5"/>
<path d="M469.483 453.898H462.167V461.214H469.483V453.898Z" fill="#F5F5F5"/>
<path d="M469.483 466.17H462.167V473.486H469.483V466.17Z" fill="#F5F5F5"/>
<path d="M469.483 478.418H462.167V485.734H469.483V478.418Z" fill="#F5F5F5"/>
<path d="M469.483 490.689H462.167V498.005H469.483V490.689Z" fill="#F5F5F5"/>
<path d="M469.483 502.939H462.167V510.255H469.483V502.939Z" fill="#F5F5F5"/>
<path d="M469.483 539.73H462.167V547.046H469.483V539.73Z" fill="#F5F5F5"/>
<path d="M469.483 551.979H462.167V559.294H469.483V551.979Z" fill="#F5F5F5"/>
<path d="M469.483 564.25H462.167V571.566H469.483V564.25Z" fill="#F5F5F5"/>
<path d="M469.483 576.5H462.167V583.816H469.483V576.5Z" fill="#F5F5F5"/>
<path d="M469.483 588.771H462.167V596.087H469.483V588.771Z" fill="#F5F5F5"/>
<path d="M469.483 637.812H462.167V645.128H469.483V637.812Z" fill="#F5F5F5"/>
<path d="M481.094 392.609H473.778V399.925H481.094V392.609Z" fill="#F5F5F5"/>
<path d="M481.094 404.857H473.778V412.173H481.094V404.857Z" fill="#F5F5F5"/>
<path d="M481.094 417.129H473.778V424.445H481.094V417.129Z" fill="#F5F5F5"/>
<path d="M481.094 429.379H473.778V436.695H481.094V429.379Z" fill="#F5F5F5"/>
<path d="M481.094 441.65H473.778V448.966H481.094V441.65Z" fill="#F5F5F5"/>
<path d="M481.094 453.898H473.778V461.214H481.094V453.898Z" fill="#F5F5F5"/>
<path d="M481.094 466.17H473.778V473.486H481.094V466.17Z" fill="#F5F5F5"/>
<path d="M481.094 478.418H473.778V485.734H481.094V478.418Z" fill="#F5F5F5"/>
<path d="M481.094 490.689H473.778V498.005H481.094V490.689Z" fill="#F5F5F5"/>
<path d="M481.094 502.939H473.778V510.255H481.094V502.939Z" fill="#F5F5F5"/>
<path d="M481.094 515.211H473.778V522.527H481.094V515.211Z" fill="#F5F5F5"/>
<path d="M481.094 527.459H473.778V534.775H481.094V527.459Z" fill="#F5F5F5"/>
<path d="M481.094 539.73H473.778V547.046H481.094V539.73Z" fill="#F5F5F5"/>
<path d="M481.094 551.979H473.778V559.294H481.094V551.979Z" fill="#F5F5F5"/>
<path d="M481.094 564.25H473.778V571.566H481.094V564.25Z" fill="#F5F5F5"/>
<path d="M481.094 576.5H473.778V583.816H481.094V576.5Z" fill="#F5F5F5"/>
<path d="M481.094 588.771H473.778V596.087H481.094V588.771Z" fill="#F5F5F5"/>
<path d="M481.094 601.02H473.778V608.335H481.094V601.02Z" fill="#F5F5F5"/>
<path d="M492.705 392.609H485.389V399.925H492.705V392.609Z" fill="#F5F5F5"/>
<path d="M492.705 404.857H485.389V412.173H492.705V404.857Z" fill="#F5F5F5"/>
<path d="M492.705 417.129H485.389V424.445H492.705V417.129Z" fill="#F5F5F5"/>
<path d="M492.705 429.379H485.389V436.695H492.705V429.379Z" fill="#F5F5F5"/>
<path d="M492.705 441.65H485.389V448.966H492.705V441.65Z" fill="#F5F5F5"/>
<path d="M492.705 453.898H485.389V461.214H492.705V453.898Z" fill="#F5F5F5"/>
<path d="M492.705 466.17H485.389V473.486H492.705V466.17Z" fill="#F5F5F5"/>
<path d="M492.705 478.418H485.389V485.734H492.705V478.418Z" fill="#F5F5F5"/>
<path d="M492.705 490.689H485.389V498.005H492.705V490.689Z" fill="#F5F5F5"/>
<path d="M492.705 502.939H485.389V510.255H492.705V502.939Z" fill="#F5F5F5"/>
<path d="M492.705 539.73H485.389V547.046H492.705V539.73Z" fill="#F5F5F5"/>
<path d="M492.705 551.979H485.389V559.294H492.705V551.979Z" fill="#F5F5F5"/>
<path d="M492.705 564.25H485.389V571.566H492.705V564.25Z" fill="#F5F5F5"/>
<path d="M492.705 576.5H485.389V583.816H492.705V576.5Z" fill="#F5F5F5"/>
<path d="M504.316 392.609H497V399.925H504.316V392.609Z" fill="#F5F5F5"/>
<path d="M504.316 404.857H497V412.173H504.316V404.857Z" fill="#F5F5F5"/>
<path d="M504.316 417.129H497V424.445H504.316V417.129Z" fill="#F5F5F5"/>
<path d="M504.316 429.379H497V436.695H504.316V429.379Z" fill="#F5F5F5"/>
<path d="M504.316 441.65H497V448.966H504.316V441.65Z" fill="#F5F5F5"/>
<path d="M504.316 453.898H497V461.214H504.316V453.898Z" fill="#F5F5F5"/>
<path d="M504.316 466.17H497V473.486H504.316V466.17Z" fill="#F5F5F5"/>
<path d="M504.316 478.418H497V485.734H504.316V478.418Z" fill="#F5F5F5"/>
<path d="M504.316 490.689H497V498.005H504.316V490.689Z" fill="#F5F5F5"/>
<path d="M504.316 502.939H497V510.255H504.316V502.939Z" fill="#F5F5F5"/>
<path d="M504.316 539.73H497V547.046H504.316V539.73Z" fill="#F5F5F5"/>
<path d="M504.316 551.979H497V559.294H504.316V551.979Z" fill="#F5F5F5"/>
<path d="M504.316 564.25H497V571.566H504.316V564.25Z" fill="#F5F5F5"/>
<path d="M635.083 360.773H627.767V368.089H635.083V360.773Z" fill="#F5F5F5"/>
<path d="M635.083 373.021H627.767V380.337H635.083V373.021Z" fill="#F5F5F5"/>
<path d="M635.083 385.293H627.767V392.609H635.083V385.293Z" fill="#F5F5F5"/>
<path d="M635.083 397.541H627.767V404.857H635.083V397.541Z" fill="#F5F5F5"/>
<path d="M635.083 409.814H627.767V417.13H635.083V409.814Z" fill="#F5F5F5"/>
<path d="M635.083 422.062H627.767V429.378H635.083V422.062Z" fill="#F5F5F5"/>
<path d="M635.083 434.334H627.767V441.65H635.083V434.334Z" fill="#F5F5F5"/>
<path d="M635.083 446.582H627.767V453.898H635.083V446.582Z" fill="#F5F5F5"/>
<path d="M635.083 483.375H627.767V490.691H635.083V483.375Z" fill="#F5F5F5"/>
<path d="M635.083 495.623H627.767V502.939H635.083V495.623Z" fill="#F5F5F5"/>
<path d="M646.718 360.773H639.402V368.089H646.718V360.773Z" fill="#F5F5F5"/>
<path d="M646.718 373.021H639.402V380.337H646.718V373.021Z" fill="#F5F5F5"/>
<path d="M646.718 385.293H639.402V392.609H646.718V385.293Z" fill="#F5F5F5"/>
<path d="M646.718 397.541H639.402V404.857H646.718V397.541Z" fill="#F5F5F5"/>
<path d="M646.718 409.814H639.402V417.13H646.718V409.814Z" fill="#F5F5F5"/>
<path d="M646.718 422.062H639.402V429.378H646.718V422.062Z" fill="#F5F5F5"/>
<path d="M646.718 434.334H639.402V441.65H646.718V434.334Z" fill="#F5F5F5"/>
<path d="M646.718 446.582H639.402V453.898H646.718V446.582Z" fill="#F5F5F5"/>
<path d="M646.718 495.623H639.402V502.939H646.718V495.623Z" fill="#F5F5F5"/>
<path d="M658.329 360.773H651.013V368.089H658.329V360.773Z" fill="#F5F5F5"/>
<path d="M658.329 373.021H651.013V380.337H658.329V373.021Z" fill="#F5F5F5"/>
<path d="M658.329 385.293H651.013V392.609H658.329V385.293Z" fill="#F5F5F5"/>
<path d="M658.329 397.541H651.013V404.857H658.329V397.541Z" fill="#F5F5F5"/>
<path d="M658.329 409.814H651.013V417.13H658.329V409.814Z" fill="#F5F5F5"/>
<path d="M658.329 422.062H651.013V429.378H658.329V422.062Z" fill="#F5F5F5"/>
<path d="M658.329 434.334H651.013V441.65H658.329V434.334Z" fill="#F5F5F5"/>
<path d="M658.329 446.582H651.013V453.898H658.329V446.582Z" fill="#F5F5F5"/>
<path d="M669.94 360.773H662.624V368.089H669.94V360.773Z" fill="#F5F5F5"/>
<path d="M669.94 373.021H662.624V380.337H669.94V373.021Z" fill="#F5F5F5"/>
<path d="M669.94 385.293H662.624V392.609H669.94V385.293Z" fill="#F5F5F5"/>
<path d="M669.94 397.541H662.624V404.857H669.94V397.541Z" fill="#F5F5F5"/>
<path d="M669.94 409.814H662.624V417.13H669.94V409.814Z" fill="#F5F5F5"/>
<path d="M669.94 422.062H662.624V429.378H669.94V422.062Z" fill="#F5F5F5"/>
<path d="M669.94 446.582H662.624V453.898H669.94V446.582Z" fill="#F5F5F5"/>
<path d="M669.94 458.854H662.624V466.169H669.94V458.854Z" fill="#F5F5F5"/>
<path d="M669.94 495.623H662.624V502.939H669.94V495.623Z" fill="#F5F5F5"/>
<path d="M669.94 507.895H662.624V515.21H669.94V507.895Z" fill="#F5F5F5"/>
<path d="M669.94 520.143H662.624V527.458H669.94V520.143Z" fill="#F5F5F5"/>
<path d="M669.94 532.414H662.624V539.73H669.94V532.414Z" fill="#F5F5F5"/>
<path d="M669.94 544.662H662.624V551.978H669.94V544.662Z" fill="#F5F5F5"/>
<path d="M669.94 556.936H662.624V564.252H669.94V556.936Z" fill="#F5F5F5"/>
<path d="M669.94 569.184H662.624V576.499H669.94V569.184Z" fill="#F5F5F5"/>
<path d="M681.551 360.773H674.235V368.089H681.551V360.773Z" fill="#F5F5F5"/>
<path d="M681.551 373.021H674.235V380.337H681.551V373.021Z" fill="#F5F5F5"/>
<path d="M681.551 385.293H674.235V392.609H681.551V385.293Z" fill="#F5F5F5"/>
<path d="M681.551 397.541H674.235V404.857H681.551V397.541Z" fill="#F5F5F5"/>
<path d="M681.551 409.814H674.235V417.13H681.551V409.814Z" fill="#F5F5F5"/>
<path d="M681.551 422.062H674.235V429.378H681.551V422.062Z" fill="#F5F5F5"/>
<path d="M681.551 458.854H674.235V466.169H681.551V458.854Z" fill="#F5F5F5"/>
<path d="M681.551 471.102H674.235V478.417H681.551V471.102Z" fill="#F5F5F5"/>
<path d="M681.551 483.375H674.235V490.691H681.551V483.375Z" fill="#F5F5F5"/>
<path d="M681.551 495.623H674.235V502.939H681.551V495.623Z" fill="#F5F5F5"/>
<path d="M681.551 507.895H674.235V515.21H681.551V507.895Z" fill="#F5F5F5"/>
<path d="M681.551 520.143H674.235V527.458H681.551V520.143Z" fill="#F5F5F5"/>
<path d="M681.551 532.414H674.235V539.73H681.551V532.414Z" fill="#F5F5F5"/>
<path d="M681.551 544.662H674.235V551.978H681.551V544.662Z" fill="#F5F5F5"/>
<path d="M681.551 556.936H674.235V564.252H681.551V556.936Z" fill="#F5F5F5"/>
<path d="M681.551 569.184H674.235V576.499H681.551V569.184Z" fill="#F5F5F5"/>
<path d="M681.551 581.455H674.235V588.771H681.551V581.455Z" fill="#F5F5F5"/>
<path d="M681.551 605.975H674.235V613.291H681.551V605.975Z" fill="#F5F5F5"/>
<path d="M693.162 360.773H685.846V368.089H693.162V360.773Z" fill="#F5F5F5"/>
<path d="M693.162 373.021H685.846V380.337H693.162V373.021Z" fill="#F5F5F5"/>
<path d="M693.162 385.293H685.846V392.609H693.162V385.293Z" fill="#F5F5F5"/>
<path d="M693.162 397.541H685.846V404.857H693.162V397.541Z" fill="#F5F5F5"/>
<path d="M693.162 409.814H685.846V417.13H693.162V409.814Z" fill="#F5F5F5"/>
<path d="M693.162 422.062H685.846V429.378H693.162V422.062Z" fill="#F5F5F5"/>
<path d="M693.162 458.854H685.846V466.169H693.162V458.854Z" fill="#F5F5F5"/>
<path d="M693.162 471.102H685.846V478.417H693.162V471.102Z" fill="#F5F5F5"/>
<path d="M693.162 483.375H685.846V490.691H693.162V483.375Z" fill="#F5F5F5"/>
<path d="M693.162 495.623H685.846V502.939H693.162V495.623Z" fill="#F5F5F5"/>
<path d="M693.162 532.414H685.846V539.73H693.162V532.414Z" fill="#F5F5F5"/>
<path d="M693.162 544.662H685.846V551.978H693.162V544.662Z" fill="#F5F5F5"/>
<path d="M693.162 556.936H685.846V564.252H693.162V556.936Z" fill="#F5F5F5"/>
<path d="M693.162 569.184H685.846V576.499H693.162V569.184Z" fill="#F5F5F5"/>
<path d="M693.162 581.455H685.846V588.771H693.162V581.455Z" fill="#F5F5F5"/>
<path d="M693.162 605.975H685.846V613.291H693.162V605.975Z" fill="#F5F5F5"/>
<path d="M693.162 618.225H685.846V625.541H693.162V618.225Z" fill="#F5F5F5"/>
<path d="M798.559 474.76H791.243V482.076H798.559V474.76Z" fill="#F5F5F5"/>
<path d="M798.559 487.033H791.243V494.349H798.559V487.033Z" fill="#F5F5F5"/>
<path d="M798.559 499.281H791.243V506.597H798.559V499.281Z" fill="#F5F5F5"/>
<path d="M798.559 511.553H791.243V518.869H798.559V511.553Z" fill="#F5F5F5"/>
<path d="M798.559 523.801H791.243V531.117H798.559V523.801Z" fill="#F5F5F5"/>
<path d="M798.559 536.072H791.243V543.388H798.559V536.072Z" fill="#F5F5F5"/>
<path d="M798.559 548.32H791.243V555.636H798.559V548.32Z" fill="#F5F5F5"/>
<path d="M798.559 585.113H791.243V592.429H798.559V585.113Z" fill="#F5F5F5"/>
<path d="M798.559 597.361H791.243V604.677H798.559V597.361Z" fill="#F5F5F5"/>
<path d="M798.559 609.633H791.243V616.949H798.559V609.633Z" fill="#F5F5F5"/>
<path d="M810.17 474.76H802.854V482.076H810.17V474.76Z" fill="#F5F5F5"/>
<path d="M810.17 487.033H802.854V494.349H810.17V487.033Z" fill="#F5F5F5"/>
<path d="M810.17 499.281H802.854V506.597H810.17V499.281Z" fill="#F5F5F5"/>
<path d="M810.17 511.553H802.854V518.869H810.17V511.553Z" fill="#F5F5F5"/>
<path d="M810.17 523.801H802.854V531.117H810.17V523.801Z" fill="#F5F5F5"/>
<path d="M810.17 536.072H802.854V543.388H810.17V536.072Z" fill="#F5F5F5"/>
<path d="M810.17 548.32H802.854V555.636H810.17V548.32Z" fill="#F5F5F5"/>
<path d="M821.805 474.76H814.489V482.076H821.805V474.76Z" fill="#F5F5F5"/>
<path d="M821.805 487.033H814.489V494.349H821.805V487.033Z" fill="#F5F5F5"/>
<path d="M821.805 499.281H814.489V506.597H821.805V499.281Z" fill="#F5F5F5"/>
<path d="M821.805 511.553H814.489V518.869H821.805V511.553Z" fill="#F5F5F5"/>
<path d="M821.805 523.801H814.489V531.117H821.805V523.801Z" fill="#F5F5F5"/>
<path d="M821.805 536.072H814.489V543.388H821.805V536.072Z" fill="#F5F5F5"/>
<path d="M821.805 548.32H814.489V555.636H821.805V548.32Z" fill="#F5F5F5"/>
<path d="M833.416 474.76H826.1V482.076H833.416V474.76Z" fill="#F5F5F5"/>
<path d="M833.416 487.033H826.1V494.349H833.416V487.033Z" fill="#F5F5F5"/>
<path d="M833.416 499.281H826.1V506.597H833.416V499.281Z" fill="#F5F5F5"/>
<path d="M833.416 511.553H826.1V518.869H833.416V511.553Z" fill="#F5F5F5"/>
<path d="M833.416 523.801H826.1V531.117H833.416V523.801Z" fill="#F5F5F5"/>
<path d="M833.416 536.072H826.1V543.388H833.416V536.072Z" fill="#F5F5F5"/>
<path d="M833.416 548.32H826.1V555.636H833.416V548.32Z" fill="#F5F5F5"/>
<path d="M833.416 560.594H826.1V567.91H833.416V560.594Z" fill="#F5F5F5"/>
<path d="M833.416 572.842H826.1V580.158H833.416V572.842Z" fill="#F5F5F5"/>
<path d="M833.416 585.113H826.1V592.429H833.416V585.113Z" fill="#F5F5F5"/>
<path d="M833.416 597.361H826.1V604.677H833.416V597.361Z" fill="#F5F5F5"/>
<path d="M845.027 474.76H837.711V482.076H845.027V474.76Z" fill="#F5F5F5"/>
<path d="M845.027 487.033H837.711V494.349H845.027V487.033Z" fill="#F5F5F5"/>
<path d="M845.027 499.281H837.711V506.597H845.027V499.281Z" fill="#F5F5F5"/>
<path d="M845.027 511.553H837.711V518.869H845.027V511.553Z" fill="#F5F5F5"/>
<path d="M845.027 523.801H837.711V531.117H845.027V523.801Z" fill="#F5F5F5"/>
<path d="M845.027 536.072H837.711V543.388H845.027V536.072Z" fill="#F5F5F5"/>
<path d="M845.027 548.32H837.711V555.636H845.027V548.32Z" fill="#F5F5F5"/>
<path d="M845.027 560.594H837.711V567.91H845.027V560.594Z" fill="#F5F5F5"/>
<path d="M845.027 572.842H837.711V580.158H845.027V572.842Z" fill="#F5F5F5"/>
<path d="M845.027 585.113H837.711V592.429H845.027V585.113Z" fill="#F5F5F5"/>
<path d="M845.027 597.361H837.711V604.677H845.027V597.361Z" fill="#F5F5F5"/>
<path d="M845.027 609.633H837.711V616.949H845.027V609.633Z" fill="#F5F5F5"/>
<path d="M845.027 646.402H837.711V653.718H845.027V646.402Z" fill="#F5F5F5"/>
<path d="M845.027 658.674H837.711V665.99H845.027V658.674Z" fill="#F5F5F5"/>
<path d="M856.638 474.76H849.322V482.076H856.638V474.76Z" fill="#F5F5F5"/>
<path d="M856.638 487.033H849.322V494.349H856.638V487.033Z" fill="#F5F5F5"/>
<path d="M856.638 499.281H849.322V506.597H856.638V499.281Z" fill="#F5F5F5"/>
<path d="M856.638 536.072H849.322V543.388H856.638V536.072Z" fill="#F5F5F5"/>
<path d="M856.638 548.32H849.322V555.636H856.638V548.32Z" fill="#F5F5F5"/>
<path d="M856.638 560.594H849.322V567.91H856.638V560.594Z" fill="#F5F5F5"/>
<path d="M856.638 572.842H849.322V580.158H856.638V572.842Z" fill="#F5F5F5"/>
<path d="M856.638 585.113H849.322V592.429H856.638V585.113Z" fill="#F5F5F5"/>
<path d="M856.638 597.361H849.322V604.677H856.638V597.361Z" fill="#F5F5F5"/>
<path d="M856.638 609.633H849.322V616.949H856.638V609.633Z" fill="#F5F5F5"/>
<path d="M856.638 646.402H849.322V653.718H856.638V646.402Z" fill="#F5F5F5"/>
<path d="M856.638 658.674H849.322V665.99H856.638V658.674Z" fill="#F5F5F5"/>
<path d="M856.638 670.922H849.322V678.238H856.638V670.922Z" fill="#F5F5F5"/>
<path d="M978.389 401.199H971.073V408.515H978.389V401.199Z" fill="#F5F5F5"/>
<path d="M978.389 413.473H971.073V420.789H978.389V413.473Z" fill="#F5F5F5"/>
<path d="M978.389 425.721H971.073V433.037H978.389V425.721Z" fill="#F5F5F5"/>
<path d="M978.389 437.992H971.073V445.308H978.389V437.992Z" fill="#F5F5F5"/>
<path d="M978.389 450.24H971.073V457.556H978.389V450.24Z" fill="#F5F5F5"/>
<path d="M978.389 462.512H971.073V469.828H978.389V462.512Z" fill="#F5F5F5"/>
<path d="M978.389 474.76H971.073V482.076H978.389V474.76Z" fill="#F5F5F5"/>
<path d="M978.389 487.033H971.073V494.349H978.389V487.033Z" fill="#F5F5F5"/>
<path d="M978.389 499.281H971.073V506.597H978.389V499.281Z" fill="#F5F5F5"/>
<path d="M978.389 511.553H971.073V518.869H978.389V511.553Z" fill="#F5F5F5"/>
<path d="M978.389 523.801H971.073V531.117H978.389V523.801Z" fill="#F5F5F5"/>
<path d="M978.389 536.072H971.073V543.388H978.389V536.072Z" fill="#F5F5F5"/>
<path d="M978.389 548.32H971.073V555.636H978.389V548.32Z" fill="#F5F5F5"/>
<path d="M978.389 560.594H971.073V567.91H978.389V560.594Z" fill="#F5F5F5"/>
<path d="M978.389 572.842H971.073V580.158H978.389V572.842Z" fill="#F5F5F5"/>
<path d="M978.389 585.113H971.073V592.429H978.389V585.113Z" fill="#F5F5F5"/>
<path d="M978.389 597.361H971.073V604.677H978.389V597.361Z" fill="#F5F5F5"/>
<path d="M978.389 609.633H971.073V616.949H978.389V609.633Z" fill="#F5F5F5"/>
<path d="M978.389 621.881H971.073V629.197H978.389V621.881Z" fill="#F5F5F5"/>
<path d="M978.389 634.154H971.073V641.47H978.389V634.154Z" fill="#F5F5F5"/>
<path d="M978.389 646.402H971.073V653.718H978.389V646.402Z" fill="#F5F5F5"/>
<path d="M978.389 658.674H971.073V665.99H978.389V658.674Z" fill="#F5F5F5"/>
<path d="M978.389 670.922H971.073V678.238H978.389V670.922Z" fill="#F5F5F5"/>
<path d="M990 401.199H982.685V408.515H990V401.199Z" fill="#F5F5F5"/>
<path d="M990 413.473H982.685V420.789H990V413.473Z" fill="#F5F5F5"/>
<path d="M990 425.721H982.685V433.037H990V425.721Z" fill="#F5F5F5"/>
<path d="M990 437.992H982.685V445.308H990V437.992Z" fill="#F5F5F5"/>
<path d="M990 450.24H982.685V457.556H990V450.24Z" fill="#F5F5F5"/>
<path d="M990 462.512H982.685V469.828H990V462.512Z" fill="#F5F5F5"/>
<path d="M990 474.76H982.685V482.076H990V474.76Z" fill="#F5F5F5"/>
<path d="M990 487.033H982.685V494.349H990V487.033Z" fill="#F5F5F5"/>
<path d="M990 499.281H982.685V506.597H990V499.281Z" fill="#F5F5F5"/>
<path d="M990 511.553H982.685V518.869H990V511.553Z" fill="#F5F5F5"/>
<path d="M990 523.801H982.685V531.117H990V523.801Z" fill="#F5F5F5"/>
<path d="M990 536.072H982.685V543.388H990V536.072Z" fill="#F5F5F5"/>
<path d="M990 548.32H982.685V555.636H990V548.32Z" fill="#F5F5F5"/>
<path d="M990 560.594H982.685V567.91H990V560.594Z" fill="#F5F5F5"/>
<path d="M990 572.842H982.685V580.158H990V572.842Z" fill="#F5F5F5"/>
<path d="M990 585.113H982.685V592.429H990V585.113Z" fill="#F5F5F5"/>
<path d="M990 597.361H982.685V604.677H990V597.361Z" fill="#F5F5F5"/>
<path d="M990 609.633H982.685V616.949H990V609.633Z" fill="#F5F5F5"/>
<path d="M990 621.881H982.685V629.197H990V621.881Z" fill="#F5F5F5"/>
<path d="M1001.61 401.199H994.296V408.515H1001.61V401.199Z" fill="#F5F5F5"/>
<path d="M1001.61 413.473H994.296V420.789H1001.61V413.473Z" fill="#F5F5F5"/>
<path d="M1001.61 425.721H994.296V433.037H1001.61V425.721Z" fill="#F5F5F5"/>
<path d="M1001.61 437.992H994.296V445.308H1001.61V437.992Z" fill="#F5F5F5"/>
<path d="M1001.61 450.24H994.296V457.556H1001.61V450.24Z" fill="#F5F5F5"/>
<path d="M1001.61 462.512H994.296V469.828H1001.61V462.512Z" fill="#F5F5F5"/>
<path d="M1001.61 474.76H994.296V482.076H1001.61V474.76Z" fill="#F5F5F5"/>
<path d="M1001.61 487.033H994.296V494.349H1001.61V487.033Z" fill="#F5F5F5"/>
<path d="M1001.61 499.281H994.296V506.597H1001.61V499.281Z" fill="#F5F5F5"/>
<path d="M1001.61 511.553H994.296V518.869H1001.61V511.553Z" fill="#F5F5F5"/>
<path d="M1001.61 523.801H994.296V531.117H1001.61V523.801Z" fill="#F5F5F5"/>
<path d="M1001.61 536.072H994.296V543.388H1001.61V536.072Z" fill="#F5F5F5"/>
<path d="M1001.61 548.32H994.296V555.636H1001.61V548.32Z" fill="#F5F5F5"/>
<path d="M1001.61 560.594H994.296V567.91H1001.61V560.594Z" fill="#F5F5F5"/>
<path d="M1001.61 572.842H994.296V580.158H1001.61V572.842Z" fill="#F5F5F5"/>
<path d="M1001.61 585.113H994.296V592.429H1001.61V585.113Z" fill="#F5F5F5"/>
<path d="M1001.61 597.361H994.296V604.677H1001.61V597.361Z" fill="#F5F5F5"/>
<path d="M1001.61 609.633H994.296V616.949H1001.61V609.633Z" fill="#F5F5F5"/>
<path d="M1001.61 621.881H994.296V629.197H1001.61V621.881Z" fill="#F5F5F5"/>
<path d="M1013.22 401.199H1005.91V408.515H1013.22V401.199Z" fill="#F5F5F5"/>
<path d="M1013.22 413.473H1005.91V420.789H1013.22V413.473Z" fill="#F5F5F5"/>
<path d="M1013.22 425.721H1005.91V433.037H1013.22V425.721Z" fill="#F5F5F5"/>
<path d="M1013.22 437.992H1005.91V445.308H1013.22V437.992Z" fill="#F5F5F5"/>
<path d="M1013.22 450.24H1005.91V457.556H1013.22V450.24Z" fill="#F5F5F5"/>
<path d="M1013.22 462.512H1005.91V469.828H1013.22V462.512Z" fill="#F5F5F5"/>
<path d="M1013.22 474.76H1005.91V482.076H1013.22V474.76Z" fill="#F5F5F5"/>
<path d="M1013.22 487.033H1005.91V494.349H1013.22V487.033Z" fill="#F5F5F5"/>
<path d="M1013.22 499.281H1005.91V506.597H1013.22V499.281Z" fill="#F5F5F5"/>
<path d="M1013.22 511.553H1005.91V518.869H1013.22V511.553Z" fill="#F5F5F5"/>
<path d="M1013.22 523.801H1005.91V531.117H1013.22V523.801Z" fill="#F5F5F5"/>
<path d="M1013.22 536.072H1005.91V543.388H1013.22V536.072Z" fill="#F5F5F5"/>
<path d="M1013.22 548.32H1005.91V555.636H1013.22V548.32Z" fill="#F5F5F5"/>
<path d="M1013.22 560.594H1005.91V567.91H1013.22V560.594Z" fill="#F5F5F5"/>
<path d="M1013.22 572.842H1005.91V580.158H1013.22V572.842Z" fill="#F5F5F5"/>
<path d="M1024.83 401.199H1017.52V408.515H1024.83V401.199Z" fill="#F5F5F5"/>
<path d="M1024.83 413.473H1017.52V420.789H1024.83V413.473Z" fill="#F5F5F5"/>
<path d="M1024.83 425.721H1017.52V433.037H1024.83V425.721Z" fill="#F5F5F5"/>
<path d="M1024.83 437.992H1017.52V445.308H1024.83V437.992Z" fill="#F5F5F5"/>
<path d="M1024.83 450.24H1017.52V457.556H1024.83V450.24Z" fill="#F5F5F5"/>
<path d="M1024.83 462.512H1017.52V469.828H1024.83V462.512Z" fill="#F5F5F5"/>
<path d="M1024.83 474.76H1017.52V482.076H1024.83V474.76Z" fill="#F5F5F5"/>
<path d="M1024.83 487.033H1017.52V494.349H1024.83V487.033Z" fill="#F5F5F5"/>
<path d="M1024.83 499.281H1017.52V506.597H1024.83V499.281Z" fill="#F5F5F5"/>
<path d="M1024.83 511.553H1017.52V518.869H1024.83V511.553Z" fill="#F5F5F5"/>
<path d="M1024.83 523.801H1017.52V531.117H1024.83V523.801Z" fill="#F5F5F5"/>
<path d="M1024.83 536.072H1017.52V543.388H1024.83V536.072Z" fill="#F5F5F5"/>
<path d="M1024.83 548.32H1017.52V555.636H1024.83V548.32Z" fill="#F5F5F5"/>
<path d="M1036.47 401.199H1029.15V408.515H1036.47V401.199Z" fill="#F5F5F5"/>
<path d="M1036.47 413.473H1029.15V420.789H1036.47V413.473Z" fill="#F5F5F5"/>
<path d="M1036.47 425.721H1029.15V433.037H1036.47V425.721Z" fill="#F5F5F5"/>
<path d="M1036.47 437.992H1029.15V445.308H1036.47V437.992Z" fill="#F5F5F5"/>
<path d="M1036.47 450.24H1029.15V457.556H1036.47V450.24Z" fill="#F5F5F5"/>
<path d="M1036.47 462.512H1029.15V469.828H1036.47V462.512Z" fill="#F5F5F5"/>
<path d="M1036.47 474.76H1029.15V482.076H1036.47V474.76Z" fill="#F5F5F5"/>
<path d="M1036.47 487.033H1029.15V494.349H1036.47V487.033Z" fill="#F5F5F5"/>
<path d="M1036.47 499.281H1029.15V506.597H1036.47V499.281Z" fill="#F5F5F5"/>
<path d="M1036.47 511.553H1029.15V518.869H1036.47V511.553Z" fill="#F5F5F5"/>
<path d="M1036.47 523.801H1029.15V531.117H1036.47V523.801Z" fill="#F5F5F5"/>
<path d="M1036.47 536.072H1029.15V543.388H1036.47V536.072Z" fill="#F5F5F5"/>
<path d="M182.958 490.689H175.642V498.005H182.958V490.689Z" fill="#F5F5F5"/>
<path d="M182.958 502.939H175.642V510.255H182.958V502.939Z" fill="#F5F5F5"/>
<path d="M182.958 515.211H175.642V522.527H182.958V515.211Z" fill="#F5F5F5"/>
<path d="M182.958 527.459H175.642V534.775H182.958V527.459Z" fill="#F5F5F5"/>
<path d="M182.958 539.73H175.642V547.046H182.958V539.73Z" fill="#F5F5F5"/>
<path d="M182.958 551.979H175.642V559.294H182.958V551.979Z" fill="#F5F5F5"/>
<path d="M182.958 564.25H175.642V571.566H182.958V564.25Z" fill="#F5F5F5"/>
<path d="M182.958 576.5H175.642V583.816H182.958V576.5Z" fill="#F5F5F5"/>
<path d="M182.958 588.771H175.642V596.087H182.958V588.771Z" fill="#F5F5F5"/>
<path d="M182.958 601.02H175.642V608.335H182.958V601.02Z" fill="#F5F5F5"/>
<path d="M182.958 613.291H175.642V620.607H182.958V613.291Z" fill="#F5F5F5"/>
<path d="M182.958 625.539H175.642V632.855H182.958V625.539Z" fill="#F5F5F5"/>
<path d="M182.958 637.812H175.642V645.128H182.958V637.812Z" fill="#F5F5F5"/>
<path d="M182.958 650.061H175.642V657.377H182.958V650.061Z" fill="#F5F5F5"/>
<path d="M182.958 662.332H175.642V669.648H182.958V662.332Z" fill="#F5F5F5"/>
<path d="M182.958 674.58H175.642V681.896H182.958V674.58Z" fill="#F5F5F5"/>
<path d="M182.958 686.852H175.642V694.168H182.958V686.852Z" fill="#F5F5F5"/>
<path d="M182.958 699.1H175.642V706.416H182.958V699.1Z" fill="#F5F5F5"/>
<path d="M182.958 711.373H175.642V718.689H182.958V711.373Z" fill="#F5F5F5"/>
<path d="M182.958 723.621H175.642V730.937H182.958V723.621Z" fill="#F5F5F5"/>
<path d="M194.569 490.689H187.253V498.005H194.569V490.689Z" fill="#F5F5F5"/>
<path d="M194.569 502.939H187.253V510.255H194.569V502.939Z" fill="#F5F5F5"/>
<path d="M194.569 515.211H187.253V522.527H194.569V515.211Z" fill="#F5F5F5"/>
<path d="M194.569 527.459H187.253V534.775H194.569V527.459Z" fill="#F5F5F5"/>
<path d="M194.569 539.73H187.253V547.046H194.569V539.73Z" fill="#F5F5F5"/>
<path d="M194.569 551.979H187.253V559.294H194.569V551.979Z" fill="#F5F5F5"/>
<path d="M194.569 564.25H187.253V571.566H194.569V564.25Z" fill="#F5F5F5"/>
<path d="M194.569 576.5H187.253V583.816H194.569V576.5Z" fill="#F5F5F5"/>
<path d="M194.569 588.771H187.253V596.087H194.569V588.771Z" fill="#F5F5F5"/>
<path d="M194.569 601.02H187.253V608.335H194.569V601.02Z" fill="#F5F5F5"/>
<path d="M194.569 613.291H187.253V620.607H194.569V613.291Z" fill="#F5F5F5"/>
<path d="M194.569 625.539H187.253V632.855H194.569V625.539Z" fill="#F5F5F5"/>
<path d="M194.569 637.812H187.253V645.128H194.569V637.812Z" fill="#F5F5F5"/>
<path d="M194.569 650.061H187.253V657.377H194.569V650.061Z" fill="#F5F5F5"/>
<path d="M194.569 662.332H187.253V669.648H194.569V662.332Z" fill="#F5F5F5"/>
<path d="M194.569 674.58H187.253V681.896H194.569V674.58Z" fill="#F5F5F5"/>
<path d="M194.569 686.852H187.253V694.168H194.569V686.852Z" fill="#F5F5F5"/>
<path d="M194.569 699.1H187.253V706.416H194.569V699.1Z" fill="#F5F5F5"/>
<path d="M206.203 490.689H198.887V498.005H206.203V490.689Z" fill="#F5F5F5"/>
<path d="M206.203 502.939H198.887V510.255H206.203V502.939Z" fill="#F5F5F5"/>
<path d="M206.203 515.211H198.887V522.527H206.203V515.211Z" fill="#F5F5F5"/>
<path d="M206.203 527.459H198.887V534.775H206.203V527.459Z" fill="#F5F5F5"/>
<path d="M206.203 539.73H198.887V547.046H206.203V539.73Z" fill="#F5F5F5"/>
<path d="M206.203 551.979H198.887V559.294H206.203V551.979Z" fill="#F5F5F5"/>
<path d="M206.203 564.25H198.887V571.566H206.203V564.25Z" fill="#F5F5F5"/>
<path d="M206.203 576.5H198.887V583.816H206.203V576.5Z" fill="#F5F5F5"/>
<path d="M206.203 588.771H198.887V596.087H206.203V588.771Z" fill="#F5F5F5"/>
<path d="M206.203 601.02H198.887V608.335H206.203V601.02Z" fill="#F5F5F5"/>
<path d="M206.203 613.291H198.887V620.607H206.203V613.291Z" fill="#F5F5F5"/>
<path d="M206.203 625.539H198.887V632.855H206.203V625.539Z" fill="#F5F5F5"/>
<path d="M206.203 637.812H198.887V645.128H206.203V637.812Z" fill="#F5F5F5"/>
<path d="M206.203 650.061H198.887V657.377H206.203V650.061Z" fill="#F5F5F5"/>
<path d="M206.203 662.332H198.887V669.648H206.203V662.332Z" fill="#F5F5F5"/>
<path d="M206.203 674.58H198.887V681.896H206.203V674.58Z" fill="#F5F5F5"/>
<path d="M206.203 686.852H198.887V694.168H206.203V686.852Z" fill="#F5F5F5"/>
<path d="M206.203 699.1H198.887V706.416H206.203V699.1Z" fill="#F5F5F5"/>
<path d="M139.51 580.156H132.194V587.472H139.51V580.156Z" fill="#F5F5F5"/>
<path d="M139.51 592.43H132.194V599.746H139.51V592.43Z" fill="#F5F5F5"/>
<path d="M139.51 604.678H132.194V611.994H139.51V604.678Z" fill="#F5F5F5"/>
<path d="M139.51 616.949H132.194V624.265H139.51V616.949Z" fill="#F5F5F5"/>
<path d="M139.51 629.197H132.194V636.513H139.51V629.197Z" fill="#F5F5F5"/>
<path d="M139.51 641.469H132.194V648.785H139.51V641.469Z" fill="#F5F5F5"/>
<path d="M139.51 653.719H132.194V661.035H139.51V653.719Z" fill="#F5F5F5"/>
<path d="M139.51 665.99H132.194V673.306H139.51V665.99Z" fill="#F5F5F5"/>
<path d="M139.51 678.238H132.194V685.554H139.51V678.238Z" fill="#F5F5F5"/>
<path d="M139.51 690.51H132.194V697.826H139.51V690.51Z" fill="#F5F5F5"/>
<path d="M139.51 702.758H132.194V710.074H139.51V702.758Z" fill="#F5F5F5"/>
<path d="M139.51 715.029H132.194V722.345H139.51V715.029Z" fill="#F5F5F5"/>
<path d="M139.51 727.279H132.194V734.595H139.51V727.279Z" fill="#F5F5F5"/>
<path d="M151.122 580.156H143.806V587.472H151.122V580.156Z" fill="#F5F5F5"/>
<path d="M151.122 592.43H143.806V599.746H151.122V592.43Z" fill="#F5F5F5"/>
<path d="M151.122 604.678H143.806V611.994H151.122V604.678Z" fill="#F5F5F5"/>
<path d="M151.122 616.949H143.806V624.265H151.122V616.949Z" fill="#F5F5F5"/>
<path d="M151.122 629.197H143.806V636.513H151.122V629.197Z" fill="#F5F5F5"/>
<path d="M151.122 641.469H143.806V648.785H151.122V641.469Z" fill="#F5F5F5"/>
<path d="M151.122 653.719H143.806V661.035H151.122V653.719Z" fill="#F5F5F5"/>
<path d="M151.122 665.99H143.806V673.306H151.122V665.99Z" fill="#F5F5F5"/>
<path d="M151.122 678.238H143.806V685.554H151.122V678.238Z" fill="#F5F5F5"/>
<path d="M151.122 690.51H143.806V697.826H151.122V690.51Z" fill="#F5F5F5"/>
<path d="M151.122 702.758H143.806V710.074H151.122V702.758Z" fill="#F5F5F5"/>
<path d="M151.122 715.029H143.806V722.345H151.122V715.029Z" fill="#F5F5F5"/>
<path d="M151.122 727.279H143.806V734.595H151.122V727.279Z" fill="#F5F5F5"/>
<path d="M162.756 580.156H155.44V587.472H162.756V580.156Z" fill="#F5F5F5"/>
<path d="M162.756 592.43H155.44V599.746H162.756V592.43Z" fill="#F5F5F5"/>
<path d="M162.756 604.678H155.44V611.994H162.756V604.678Z" fill="#F5F5F5"/>
<path d="M162.756 616.949H155.44V624.265H162.756V616.949Z" fill="#F5F5F5"/>
<path d="M162.756 629.197H155.44V636.513H162.756V629.197Z" fill="#F5F5F5"/>
<path d="M162.756 641.469H155.44V648.785H162.756V641.469Z" fill="#F5F5F5"/>
<path d="M162.756 653.719H155.44V661.035H162.756V653.719Z" fill="#F5F5F5"/>
<path d="M162.756 665.99H155.44V673.306H162.756V665.99Z" fill="#F5F5F5"/>
<path d="M162.756 678.238H155.44V685.554H162.756V678.238Z" fill="#F5F5F5"/>
<path d="M162.756 690.51H155.44V697.826H162.756V690.51Z" fill="#F5F5F5"/>
<path d="M162.756 702.758H155.44V710.074H162.756V702.758Z" fill="#F5F5F5"/>
<path d="M162.756 715.029H155.44V722.345H162.756V715.029Z" fill="#F5F5F5"/>
<path d="M162.756 727.279H155.44V734.595H162.756V727.279Z" fill="#F5F5F5"/>
<path d="M162.756 739.551H155.44V746.867H162.756V739.551Z" fill="#F5F5F5"/>
<path d="M227.278 583.814H219.962V591.13H227.278V583.814Z" fill="#F5F5F5"/>
<path d="M227.278 596.088H219.962V603.404H227.278V596.088Z" fill="#F5F5F5"/>
<path d="M227.278 608.336H219.962V615.652H227.278V608.336Z" fill="#F5F5F5"/>
<path d="M227.278 620.607H219.962V627.923H227.278V620.607Z" fill="#F5F5F5"/>
<path d="M227.278 632.855H219.962V640.171H227.278V632.855Z" fill="#F5F5F5"/>
<path d="M227.278 645.127H219.962V652.443H227.278V645.127Z" fill="#F5F5F5"/>
<path d="M227.278 657.375H219.962V664.691H227.278V657.375Z" fill="#F5F5F5"/>
<path d="M227.278 669.648H219.962V676.964H227.278V669.648Z" fill="#F5F5F5"/>
<path d="M227.278 681.896H219.962V689.212H227.278V681.896Z" fill="#F5F5F5"/>
<path d="M227.278 694.168H219.962V701.484H227.278V694.168Z" fill="#F5F5F5"/>
<path d="M227.278 730.936H219.962V738.252H227.278V730.936Z" fill="#F5F5F5"/>
<path d="M238.889 583.814H231.573V591.13H238.889V583.814Z" fill="#F5F5F5"/>
<path d="M238.889 596.088H231.573V603.404H238.889V596.088Z" fill="#F5F5F5"/>
<path d="M238.889 608.336H231.573V615.652H238.889V608.336Z" fill="#F5F5F5"/>
<path d="M238.889 620.607H231.573V627.923H238.889V620.607Z" fill="#F5F5F5"/>
<path d="M238.889 632.855H231.573V640.171H238.889V632.855Z" fill="#F5F5F5"/>
<path d="M238.889 645.127H231.573V652.443H238.889V645.127Z" fill="#F5F5F5"/>
<path d="M238.889 657.375H231.573V664.691H238.889V657.375Z" fill="#F5F5F5"/>
<path d="M238.889 669.648H231.573V676.964H238.889V669.648Z" fill="#F5F5F5"/>
<path d="M238.889 681.896H231.573V689.212H238.889V681.896Z" fill="#F5F5F5"/>
<path d="M238.889 718.688H231.573V726.003H238.889V718.688Z" fill="#F5F5F5"/>
<path d="M238.889 730.936H231.573V738.252H238.889V730.936Z" fill="#F5F5F5"/>
<path d="M250.5 583.814H243.184V591.13H250.5V583.814Z" fill="#F5F5F5"/>
<path d="M250.5 596.088H243.184V603.404H250.5V596.088Z" fill="#F5F5F5"/>
<path d="M250.5 608.336H243.184V615.652H250.5V608.336Z" fill="#F5F5F5"/>
<path d="M250.5 620.607H243.184V627.923H250.5V620.607Z" fill="#F5F5F5"/>
<path d="M250.5 632.855H243.184V640.171H250.5V632.855Z" fill="#F5F5F5"/>
<path d="M250.5 645.127H243.184V652.443H250.5V645.127Z" fill="#F5F5F5"/>
<path d="M250.5 657.375H243.184V664.691H250.5V657.375Z" fill="#F5F5F5"/>
<path d="M250.5 669.648H243.184V676.964H250.5V669.648Z" fill="#F5F5F5"/>
<path d="M250.5 706.416H243.184V713.732H250.5V706.416Z" fill="#F5F5F5"/>
<path d="M250.5 718.688H243.184V726.003H250.5V718.688Z" fill="#F5F5F5"/>
<path d="M250.5 730.936H243.184V738.252H250.5V730.936Z" fill="#F5F5F5"/>
<path d="M358.493 397.541H351.177V404.857H358.493V397.541Z" fill="#F5F5F5"/>
<path d="M358.493 409.814H351.177V417.13H358.493V409.814Z" fill="#F5F5F5"/>
<path d="M358.493 422.062H351.177V429.378H358.493V422.062Z" fill="#F5F5F5"/>
<path d="M358.493 434.334H351.177V441.65H358.493V434.334Z" fill="#F5F5F5"/>
<path d="M358.493 446.582H351.177V453.898H358.493V446.582Z" fill="#F5F5F5"/>
<path d="M358.493 458.854H351.177V466.169H358.493V458.854Z" fill="#F5F5F5"/>
<path d="M358.493 471.102H351.177V478.417H358.493V471.102Z" fill="#F5F5F5"/>
<path d="M358.493 483.375H351.177V490.691H358.493V483.375Z" fill="#F5F5F5"/>
<path d="M358.493 495.623H351.177V502.939H358.493V495.623Z" fill="#F5F5F5"/>
<path d="M358.493 507.895H351.177V515.21H358.493V507.895Z" fill="#F5F5F5"/>
<path d="M358.493 520.143H351.177V527.458H358.493V520.143Z" fill="#F5F5F5"/>
<path d="M358.493 532.414H351.177V539.73H358.493V532.414Z" fill="#F5F5F5"/>
<path d="M358.493 544.662H351.177V551.978H358.493V544.662Z" fill="#F5F5F5"/>
<path d="M358.493 556.936H351.177V564.252H358.493V556.936Z" fill="#F5F5F5"/>
<path d="M358.493 569.184H351.177V576.499H358.493V569.184Z" fill="#F5F5F5"/>
<path d="M358.493 581.455H351.177V588.771H358.493V581.455Z" fill="#F5F5F5"/>
<path d="M358.493 593.703H351.177V601.019H358.493V593.703Z" fill="#F5F5F5"/>
<path d="M358.493 618.225H351.177V625.541H358.493V618.225Z" fill="#F5F5F5"/>
<path d="M358.493 630.496H351.177V637.812H358.493V630.496Z" fill="#F5F5F5"/>
<path d="M358.493 642.744H351.177V650.06H358.493V642.744Z" fill="#F5F5F5"/>
<path d="M358.493 655.016H351.177V662.332H358.493V655.016Z" fill="#F5F5F5"/>
<path d="M358.493 667.264H351.177V674.58H358.493V667.264Z" fill="#F5F5F5"/>
<path d="M370.104 397.541H362.788V404.857H370.104V397.541Z" fill="#F5F5F5"/>
<path d="M370.104 409.814H362.788V417.13H370.104V409.814Z" fill="#F5F5F5"/>
<path d="M370.104 422.062H362.788V429.378H370.104V422.062Z" fill="#F5F5F5"/>
<path d="M370.104 434.334H362.788V441.65H370.104V434.334Z" fill="#F5F5F5"/>
<path d="M370.104 446.582H362.788V453.898H370.104V446.582Z" fill="#F5F5F5"/>
<path d="M370.104 458.854H362.788V466.169H370.104V458.854Z" fill="#F5F5F5"/>
<path d="M370.104 471.102H362.788V478.417H370.104V471.102Z" fill="#F5F5F5"/>
<path d="M370.104 483.375H362.788V490.691H370.104V483.375Z" fill="#F5F5F5"/>
<path d="M370.104 495.623H362.788V502.939H370.104V495.623Z" fill="#F5F5F5"/>
<path d="M370.104 507.895H362.788V515.21H370.104V507.895Z" fill="#F5F5F5"/>
<path d="M370.104 520.143H362.788V527.458H370.104V520.143Z" fill="#F5F5F5"/>
<path d="M370.104 532.414H362.788V539.73H370.104V532.414Z" fill="#F5F5F5"/>
<path d="M370.104 544.662H362.788V551.978H370.104V544.662Z" fill="#F5F5F5"/>
<path d="M370.104 556.936H362.788V564.252H370.104V556.936Z" fill="#F5F5F5"/>
<path d="M370.104 569.184H362.788V576.499H370.104V569.184Z" fill="#F5F5F5"/>
<path d="M370.104 581.455H362.788V588.771H370.104V581.455Z" fill="#F5F5F5"/>
<path d="M370.104 655.016H362.788V662.332H370.104V655.016Z" fill="#F5F5F5"/>
<path d="M370.104 667.264H362.788V674.58H370.104V667.264Z" fill="#F5F5F5"/>
<path d="M381.715 397.541H374.399V404.857H381.715V397.541Z" fill="#F5F5F5"/>
<path d="M381.715 409.814H374.399V417.13H381.715V409.814Z" fill="#F5F5F5"/>
<path d="M381.715 422.062H374.399V429.378H381.715V422.062Z" fill="#F5F5F5"/>
<path d="M381.715 434.334H374.399V441.65H381.715V434.334Z" fill="#F5F5F5"/>
<path d="M381.715 446.582H374.399V453.898H381.715V446.582Z" fill="#F5F5F5"/>
<path d="M381.715 458.854H374.399V466.169H381.715V458.854Z" fill="#F5F5F5"/>
<path d="M381.715 471.102H374.399V478.417H381.715V471.102Z" fill="#F5F5F5"/>
<path d="M381.715 483.375H374.399V490.691H381.715V483.375Z" fill="#F5F5F5"/>
<path d="M381.715 495.623H374.399V502.939H381.715V495.623Z" fill="#F5F5F5"/>
<path d="M381.715 507.895H374.399V515.21H381.715V507.895Z" fill="#F5F5F5"/>
<path d="M381.715 520.143H374.399V527.458H381.715V520.143Z" fill="#F5F5F5"/>
<path d="M381.715 532.414H374.399V539.73H381.715V532.414Z" fill="#F5F5F5"/>
<path d="M381.715 544.662H374.399V551.978H381.715V544.662Z" fill="#F5F5F5"/>
<path d="M381.715 556.936H374.399V564.252H381.715V556.936Z" fill="#F5F5F5"/>
<path d="M381.715 569.184H374.399V576.499H381.715V569.184Z" fill="#F5F5F5"/>
<path d="M381.715 581.455H374.399V588.771H381.715V581.455Z" fill="#F5F5F5"/>
<path d="M381.715 605.975H374.399V613.291H381.715V605.975Z" fill="#F5F5F5"/>
<path d="M381.715 618.225H374.399V625.541H381.715V618.225Z" fill="#F5F5F5"/>
<path d="M381.715 630.496H374.399V637.812H381.715V630.496Z" fill="#F5F5F5"/>
<path d="M381.715 642.744H374.399V650.06H381.715V642.744Z" fill="#F5F5F5"/>
<path d="M381.715 667.264H374.399V674.58H381.715V667.264Z" fill="#F5F5F5"/>
<path d="M316.32 551.979H309.004V559.294H316.32V551.979Z" fill="#F5F5F5"/>
<path d="M316.32 564.25H309.004V571.566H316.32V564.25Z" fill="#F5F5F5"/>
<path d="M316.32 576.5H309.004V583.816H316.32V576.5Z" fill="#F5F5F5"/>
<path d="M316.32 588.771H309.004V596.087H316.32V588.771Z" fill="#F5F5F5"/>
<path d="M316.32 601.02H309.004V608.335H316.32V601.02Z" fill="#F5F5F5"/>
<path d="M316.32 613.291H309.004V620.607H316.32V613.291Z" fill="#F5F5F5"/>
<path d="M316.32 625.539H309.004V632.855H316.32V625.539Z" fill="#F5F5F5"/>
<path d="M316.32 650.061H309.004V657.377H316.32V650.061Z" fill="#F5F5F5"/>
<path d="M316.32 662.332H309.004V669.648H316.32V662.332Z" fill="#F5F5F5"/>
<path d="M316.32 674.58H309.004V681.896H316.32V674.58Z" fill="#F5F5F5"/>
<path d="M316.32 686.852H309.004V694.168H316.32V686.852Z" fill="#F5F5F5"/>
<path d="M316.32 699.1H309.004V706.416H316.32V699.1Z" fill="#F5F5F5"/>
<path d="M316.32 711.373H309.004V718.689H316.32V711.373Z" fill="#F5F5F5"/>
<path d="M316.32 723.621H309.004V730.937H316.32V723.621Z" fill="#F5F5F5"/>
<path d="M316.32 735.893H309.004V743.209H316.32V735.893Z" fill="#F5F5F5"/>
<path d="M327.931 551.979H320.615V559.294H327.931V551.979Z" fill="#F5F5F5"/>
<path d="M327.931 564.25H320.615V571.566H327.931V564.25Z" fill="#F5F5F5"/>
<path d="M327.931 576.5H320.615V583.816H327.931V576.5Z" fill="#F5F5F5"/>
<path d="M327.931 588.771H320.615V596.087H327.931V588.771Z" fill="#F5F5F5"/>
<path d="M327.931 601.02H320.615V608.335H327.931V601.02Z" fill="#F5F5F5"/>
<path d="M327.931 613.291H320.615V620.607H327.931V613.291Z" fill="#F5F5F5"/>
<path d="M327.931 650.061H320.615V657.377H327.931V650.061Z" fill="#F5F5F5"/>
<path d="M327.931 662.332H320.615V669.648H327.931V662.332Z" fill="#F5F5F5"/>
<path d="M327.931 674.58H320.615V681.896H327.931V674.58Z" fill="#F5F5F5"/>
<path d="M327.931 686.852H320.615V694.168H327.931V686.852Z" fill="#F5F5F5"/>
<path d="M327.931 699.1H320.615V706.416H327.931V699.1Z" fill="#F5F5F5"/>
<path d="M327.931 711.373H320.615V718.689H327.931V711.373Z" fill="#F5F5F5"/>
<path d="M327.931 723.621H320.615V730.937H327.931V723.621Z" fill="#F5F5F5"/>
<path d="M327.931 735.893H320.615V743.209H327.931V735.893Z" fill="#F5F5F5"/>
<path d="M339.543 551.979H332.227V559.294H339.543V551.979Z" fill="#F5F5F5"/>
<path d="M339.543 564.25H332.227V571.566H339.543V564.25Z" fill="#F5F5F5"/>
<path d="M339.543 576.5H332.227V583.816H339.543V576.5Z" fill="#F5F5F5"/>
<path d="M339.543 588.771H332.227V596.087H339.543V588.771Z" fill="#F5F5F5"/>
<path d="M339.543 601.02H332.227V608.335H339.543V601.02Z" fill="#F5F5F5"/>
<path d="M339.543 613.291H332.227V620.607H339.543V613.291Z" fill="#F5F5F5"/>
<path d="M339.543 637.812H332.227V645.128H339.543V637.812Z" fill="#F5F5F5"/>
<path d="M339.543 650.061H332.227V657.377H339.543V650.061Z" fill="#F5F5F5"/>
<path d="M339.543 662.332H332.227V669.648H339.543V662.332Z" fill="#F5F5F5"/>
<path d="M339.543 674.58H332.227V681.896H339.543V674.58Z" fill="#F5F5F5"/>
<path d="M339.543 686.852H332.227V694.168H339.543V686.852Z" fill="#F5F5F5"/>
<path d="M339.543 699.1H332.227V706.416H339.543V699.1Z" fill="#F5F5F5"/>
<path d="M339.543 711.373H332.227V718.689H339.543V711.373Z" fill="#F5F5F5"/>
<path d="M339.543 723.621H332.227V730.937H339.543V723.621Z" fill="#F5F5F5"/>
<path d="M339.543 735.893H332.227V743.209H339.543V735.893Z" fill="#F5F5F5"/>
<path d="M584.343 483.375H577.027V490.691H584.343V483.375Z" fill="#F5F5F5"/>
<path d="M584.343 495.623H577.027V502.939H584.343V495.623Z" fill="#F5F5F5"/>
<path d="M584.343 507.895H577.027V515.21H584.343V507.895Z" fill="#F5F5F5"/>
<path d="M584.343 520.143H577.027V527.458H584.343V520.143Z" fill="#F5F5F5"/>
<path d="M584.343 532.414H577.027V539.73H584.343V532.414Z" fill="#F5F5F5"/>
<path d="M584.343 544.662H577.027V551.978H584.343V544.662Z" fill="#F5F5F5"/>
<path d="M584.343 556.936H577.027V564.252H584.343V556.936Z" fill="#F5F5F5"/>
<path d="M584.343 569.184H577.027V576.499H584.343V569.184Z" fill="#F5F5F5"/>
<path d="M584.343 581.455H577.027V588.771H584.343V581.455Z" fill="#F5F5F5"/>
<path d="M584.343 593.703H577.027V601.019H584.343V593.703Z" fill="#F5F5F5"/>
<path d="M584.343 605.975H577.027V613.291H584.343V605.975Z" fill="#F5F5F5"/>
<path d="M584.343 618.225H577.027V625.541H584.343V618.225Z" fill="#F5F5F5"/>
<path d="M584.343 630.496H577.027V637.812H584.343V630.496Z" fill="#F5F5F5"/>
<path d="M584.343 655.016H577.027V662.332H584.343V655.016Z" fill="#F5F5F5"/>
<path d="M584.343 667.264H577.027V674.58H584.343V667.264Z" fill="#F5F5F5"/>
<path d="M584.343 679.535H577.027V686.851H584.343V679.535Z" fill="#F5F5F5"/>
<path d="M584.343 691.785H577.027V699.101H584.343V691.785Z" fill="#F5F5F5"/>
<path d="M584.343 716.305H577.027V723.621H584.343V716.305Z" fill="#F5F5F5"/>
<path d="M584.343 728.576H577.027V735.892H584.343V728.576Z" fill="#F5F5F5"/>
<path d="M584.343 740.848H577.027V748.164H584.343V740.848Z" fill="#F5F5F5"/>
<path d="M595.954 483.375H588.638V490.691H595.954V483.375Z" fill="#F5F5F5"/>
<path d="M595.954 495.623H588.638V502.939H595.954V495.623Z" fill="#F5F5F5"/>
<path d="M595.954 507.895H588.638V515.21H595.954V507.895Z" fill="#F5F5F5"/>
<path d="M595.954 520.143H588.638V527.458H595.954V520.143Z" fill="#F5F5F5"/>
<path d="M595.954 532.414H588.638V539.73H595.954V532.414Z" fill="#F5F5F5"/>
<path d="M595.954 544.662H588.638V551.978H595.954V544.662Z" fill="#F5F5F5"/>
<path d="M595.954 556.936H588.638V564.252H595.954V556.936Z" fill="#F5F5F5"/>
<path d="M595.954 569.184H588.638V576.499H595.954V569.184Z" fill="#F5F5F5"/>
<path d="M595.954 581.455H588.638V588.771H595.954V581.455Z" fill="#F5F5F5"/>
<path d="M595.954 593.703H588.638V601.019H595.954V593.703Z" fill="#F5F5F5"/>
<path d="M595.954 605.975H588.638V613.291H595.954V605.975Z" fill="#F5F5F5"/>
<path d="M595.954 618.225H588.638V625.541H595.954V618.225Z" fill="#F5F5F5"/>
<path d="M595.954 630.496H588.638V637.812H595.954V630.496Z" fill="#F5F5F5"/>
<path d="M595.954 667.264H588.638V674.58H595.954V667.264Z" fill="#F5F5F5"/>
<path d="M595.954 679.535H588.638V686.851H595.954V679.535Z" fill="#F5F5F5"/>
<path d="M595.954 704.057H588.638V711.373H595.954V704.057Z" fill="#F5F5F5"/>
<path d="M595.954 716.305H588.638V723.621H595.954V716.305Z" fill="#F5F5F5"/>
<path d="M595.954 728.576H588.638V735.892H595.954V728.576Z" fill="#F5F5F5"/>
<path d="M595.954 740.848H588.638V748.164H595.954V740.848Z" fill="#F5F5F5"/>
<path d="M607.565 483.375H600.25V490.691H607.565V483.375Z" fill="#F5F5F5"/>
<path d="M607.565 495.623H600.25V502.939H607.565V495.623Z" fill="#F5F5F5"/>
<path d="M607.565 507.895H600.25V515.21H607.565V507.895Z" fill="#F5F5F5"/>
<path d="M607.565 520.143H600.25V527.458H607.565V520.143Z" fill="#F5F5F5"/>
<path d="M607.565 532.414H600.25V539.73H607.565V532.414Z" fill="#F5F5F5"/>
<path d="M607.565 544.662H600.25V551.978H607.565V544.662Z" fill="#F5F5F5"/>
<path d="M607.565 556.936H600.25V564.252H607.565V556.936Z" fill="#F5F5F5"/>
<path d="M607.565 569.184H600.25V576.499H607.565V569.184Z" fill="#F5F5F5"/>
<path d="M607.565 581.455H600.25V588.771H607.565V581.455Z" fill="#F5F5F5"/>
<path d="M607.565 593.703H600.25V601.019H607.565V593.703Z" fill="#F5F5F5"/>
<path d="M607.565 605.975H600.25V613.291H607.565V605.975Z" fill="#F5F5F5"/>
<path d="M607.565 618.225H600.25V625.541H607.565V618.225Z" fill="#F5F5F5"/>
<path d="M607.565 630.496H600.25V637.812H607.565V630.496Z" fill="#F5F5F5"/>
<path d="M607.565 642.744H600.25V650.06H607.565V642.744Z" fill="#F5F5F5"/>
<path d="M607.565 667.264H600.25V674.58H607.565V667.264Z" fill="#F5F5F5"/>
<path d="M607.565 691.785H600.25V699.101H607.565V691.785Z" fill="#F5F5F5"/>
<path d="M607.565 704.057H600.25V711.373H607.565V704.057Z" fill="#F5F5F5"/>
<path d="M607.565 716.305H600.25V723.621H607.565V716.305Z" fill="#F5F5F5"/>
<path d="M607.565 728.576H600.25V735.892H607.565V728.576Z" fill="#F5F5F5"/>
<path d="M607.565 740.848H600.25V748.164H607.565V740.848Z" fill="#F5F5F5"/>
<path d="M537.002 553.277H529.686V560.593H537.002V553.277Z" fill="#F5F5F5"/>
<path d="M537.002 565.525H529.686V572.841H537.002V565.525Z" fill="#F5F5F5"/>
<path d="M537.002 577.797H529.686V585.113H537.002V577.797Z" fill="#F5F5F5"/>
<path d="M537.002 590.045H529.686V597.361H537.002V590.045Z" fill="#F5F5F5"/>
<path d="M537.002 602.316H529.686V609.632H537.002V602.316Z" fill="#F5F5F5"/>
<path d="M537.002 614.566H529.686V621.882H537.002V614.566Z" fill="#F5F5F5"/>
<path d="M537.002 651.357H529.686V658.673H537.002V651.357Z" fill="#F5F5F5"/>
<path d="M537.002 663.629H529.686V670.945H537.002V663.629Z" fill="#F5F5F5"/>
<path d="M537.002 675.879H529.686V683.195H537.002V675.879Z" fill="#F5F5F5"/>
<path d="M537.002 688.15H529.686V695.466H537.002V688.15Z" fill="#F5F5F5"/>
<path d="M537.002 700.398H529.686V707.714H537.002V700.398Z" fill="#F5F5F5"/>
<path d="M537.002 712.67H529.686V719.986H537.002V712.67Z" fill="#F5F5F5"/>
<path d="M537.002 724.918H529.686V732.234H537.002V724.918Z" fill="#F5F5F5"/>
<path d="M548.637 553.277H541.321V560.593H548.637V553.277Z" fill="#F5F5F5"/>
<path d="M548.637 565.525H541.321V572.841H548.637V565.525Z" fill="#F5F5F5"/>
<path d="M548.637 577.797H541.321V585.113H548.637V577.797Z" fill="#F5F5F5"/>
<path d="M548.637 590.045H541.321V597.361H548.637V590.045Z" fill="#F5F5F5"/>
<path d="M548.637 602.316H541.321V609.632H548.637V602.316Z" fill="#F5F5F5"/>
<path d="M548.637 614.566H541.321V621.882H548.637V614.566Z" fill="#F5F5F5"/>
<path d="M548.637 651.357H541.321V658.673H548.637V651.357Z" fill="#F5F5F5"/>
<path d="M548.637 663.629H541.321V670.945H548.637V663.629Z" fill="#F5F5F5"/>
<path d="M548.637 675.879H541.321V683.195H548.637V675.879Z" fill="#F5F5F5"/>
<path d="M548.637 688.15H541.321V695.466H548.637V688.15Z" fill="#F5F5F5"/>
<path d="M548.637 700.398H541.321V707.714H548.637V700.398Z" fill="#F5F5F5"/>
<path d="M548.637 712.67H541.321V719.986H548.637V712.67Z" fill="#F5F5F5"/>
<path d="M548.637 737.189H541.321V744.505H548.637V737.189Z" fill="#F5F5F5"/>
<path d="M934.494 499.281H927.178V506.597H934.494V499.281Z" fill="#F5F5F5"/>
<path d="M934.494 511.553H927.178V518.869H934.494V511.553Z" fill="#F5F5F5"/>
<path d="M934.494 523.801H927.178V531.117H934.494V523.801Z" fill="#F5F5F5"/>
<path d="M934.494 536.072H927.178V543.388H934.494V536.072Z" fill="#F5F5F5"/>
<path d="M934.494 548.32H927.178V555.636H934.494V548.32Z" fill="#F5F5F5"/>
<path d="M934.494 560.594H927.178V567.91H934.494V560.594Z" fill="#F5F5F5"/>
<path d="M934.494 572.842H927.178V580.158H934.494V572.842Z" fill="#F5F5F5"/>
<path d="M934.494 585.113H927.178V592.429H934.494V585.113Z" fill="#F5F5F5"/>
<path d="M934.494 597.361H927.178V604.677H934.494V597.361Z" fill="#F5F5F5"/>
<path d="M934.494 609.633H927.178V616.949H934.494V609.633Z" fill="#F5F5F5"/>
<path d="M934.494 621.881H927.178V629.197H934.494V621.881Z" fill="#F5F5F5"/>
<path d="M934.494 646.402H927.178V653.718H934.494V646.402Z" fill="#F5F5F5"/>
<path d="M934.494 658.674H927.178V665.99H934.494V658.674Z" fill="#F5F5F5"/>
<path d="M934.494 670.922H927.178V678.238H934.494V670.922Z" fill="#F5F5F5"/>
<path d="M934.494 683.193H927.178V690.509H934.494V683.193Z" fill="#F5F5F5"/>
<path d="M934.494 695.441H927.178V702.757H934.494V695.441Z" fill="#F5F5F5"/>
<path d="M934.494 707.715H927.178V715.031H934.494V707.715Z" fill="#F5F5F5"/>
<path d="M934.494 719.963H927.178V727.279H934.494V719.963Z" fill="#F5F5F5"/>
<path d="M934.494 732.234H927.178V739.55H934.494V732.234Z" fill="#F5F5F5"/>
<path d="M946.128 499.281H938.812V506.597H946.128V499.281Z" fill="#F5F5F5"/>
<path d="M946.128 511.553H938.812V518.869H946.128V511.553Z" fill="#F5F5F5"/>
<path d="M946.128 523.801H938.812V531.117H946.128V523.801Z" fill="#F5F5F5"/>
<path d="M946.128 536.072H938.812V543.388H946.128V536.072Z" fill="#F5F5F5"/>
<path d="M946.128 548.32H938.812V555.636H946.128V548.32Z" fill="#F5F5F5"/>
<path d="M946.128 560.594H938.812V567.91H946.128V560.594Z" fill="#F5F5F5"/>
<path d="M946.128 572.842H938.812V580.158H946.128V572.842Z" fill="#F5F5F5"/>
<path d="M946.128 585.113H938.812V592.429H946.128V585.113Z" fill="#F5F5F5"/>
<path d="M946.128 597.361H938.812V604.677H946.128V597.361Z" fill="#F5F5F5"/>
<path d="M946.128 609.633H938.812V616.949H946.128V609.633Z" fill="#F5F5F5"/>
<path d="M946.128 621.881H938.812V629.197H946.128V621.881Z" fill="#F5F5F5"/>
<path d="M946.128 634.154H938.812V641.47H946.128V634.154Z" fill="#F5F5F5"/>
<path d="M946.128 646.402H938.812V653.718H946.128V646.402Z" fill="#F5F5F5"/>
<path d="M946.128 658.674H938.812V665.99H946.128V658.674Z" fill="#F5F5F5"/>
<path d="M946.128 670.922H938.812V678.238H946.128V670.922Z" fill="#F5F5F5"/>
<path d="M946.128 683.193H938.812V690.509H946.128V683.193Z" fill="#F5F5F5"/>
<path d="M946.128 695.441H938.812V702.757H946.128V695.441Z" fill="#F5F5F5"/>
<path d="M946.128 707.715H938.812V715.031H946.128V707.715Z" fill="#F5F5F5"/>
<path d="M946.128 719.963H938.812V727.279H946.128V719.963Z" fill="#F5F5F5"/>
<path d="M946.128 732.234H938.812V739.55H946.128V732.234Z" fill="#F5F5F5"/>
<path d="M877.288 547.047H869.972V554.363H877.288V547.047Z" fill="#F5F5F5"/>
<path d="M877.288 559.295H869.972V566.611H877.288V559.295Z" fill="#F5F5F5"/>
<path d="M877.288 571.566H869.972V578.882H877.288V571.566Z" fill="#F5F5F5"/>
<path d="M877.288 583.814H869.972V591.13H877.288V583.814Z" fill="#F5F5F5"/>
<path d="M877.288 596.088H869.972V603.404H877.288V596.088Z" fill="#F5F5F5"/>
<path d="M877.288 608.336H869.972V615.652H877.288V608.336Z" fill="#F5F5F5"/>
<path d="M877.288 620.607H869.972V627.923H877.288V620.607Z" fill="#F5F5F5"/>
<path d="M877.288 632.855H869.972V640.171H877.288V632.855Z" fill="#F5F5F5"/>
<path d="M877.288 645.127H869.972V652.443H877.288V645.127Z" fill="#F5F5F5"/>
<path d="M877.288 657.375H869.972V664.691H877.288V657.375Z" fill="#F5F5F5"/>
<path d="M888.899 547.047H881.583V554.363H888.899V547.047Z" fill="#F5F5F5"/>
<path d="M888.899 559.295H881.583V566.611H888.899V559.295Z" fill="#F5F5F5"/>
<path d="M888.899 571.566H881.583V578.882H888.899V571.566Z" fill="#F5F5F5"/>
<path d="M888.899 583.814H881.583V591.13H888.899V583.814Z" fill="#F5F5F5"/>
<path d="M888.899 596.088H881.583V603.404H888.899V596.088Z" fill="#F5F5F5"/>
<path d="M888.899 608.336H881.583V615.652H888.899V608.336Z" fill="#F5F5F5"/>
<path d="M888.899 620.607H881.583V627.923H888.899V620.607Z" fill="#F5F5F5"/>
<path d="M888.899 632.855H881.583V640.171H888.899V632.855Z" fill="#F5F5F5"/>
<path d="M888.899 645.127H881.583V652.443H888.899V645.127Z" fill="#F5F5F5"/>
<path d="M590.975 880.229C843.687 880.229 1048.55 868.268 1048.55 853.514C1048.55 838.759 843.687 826.799 590.975 826.799C338.262 826.799 133.398 838.759 133.398 853.514C133.398 868.268 338.262 880.229 590.975 880.229Z" fill="#F5F5F5"/>
<path d="M997.269 836.263L964.607 673.59H952.878L919.414 836.263L895.413 850.966V855.308H1020.49V850.966L997.269 836.263Z" fill="#111111"/>
<path opacity="0.2" d="M1021.27 850.967H896.191V856.442H1021.27V850.967Z" fill="black"/>
<path opacity="0.2" d="M964.607 674.557H952.878L919.815 836.735H997.67L964.607 674.557Z" fill="black"/>
<path opacity="0.6" d="M990.496 801.028H927.201L938.6 744.389H978.979L990.284 799.943L990.496 801.028Z" fill="white"/>
<path d="M669.256 278.765L648.393 286.553C646.836 285.373 654.695 214.573 654.695 214.573L642.045 212.709C642.045 212.709 620.664 286.246 627.885 301.114C637.325 320.371 679.002 301.114 679.002 301.114L669.256 278.765Z" fill="#B97964"/>
<path d="M1051.14 321.762L1060.85 279.535L503.709 151.421L493.999 193.648L1051.14 321.762Z" fill="#111111"/>
<path opacity="0.6" d="M1051.14 321.762L1060.85 279.535L503.709 151.421L493.999 193.648L1051.14 321.762Z" fill="white"/>
<path opacity="0.2" d="M1055.22 304.053L1056.77 297.314L499.626 169.2L498.076 175.939L1055.22 304.053Z" fill="black"/>
<path d="M517.815 176.956C518.854 172.463 518.685 167.776 517.325 163.369C515.966 158.963 513.464 154.996 510.075 151.869L509.131 150.996L504.411 149.887C503.967 149.788 503.501 149.869 503.117 150.112C502.732 150.356 502.459 150.741 502.358 151.185L492.682 193.358C492.629 193.576 492.621 193.803 492.656 194.025C492.692 194.247 492.772 194.459 492.89 194.65C493.009 194.841 493.164 195.007 493.347 195.137C493.53 195.268 493.737 195.361 493.956 195.411L498.676 196.52L499.927 196.142C504.334 194.803 508.31 192.324 511.451 188.955C514.592 185.585 516.788 181.446 517.815 176.956Z" fill="#111111"/>
<path opacity="0.2" d="M517.815 176.956C518.854 172.463 518.685 167.776 517.325 163.369C515.966 158.963 513.464 154.996 510.075 151.869L509.131 150.996L504.411 149.887C503.967 149.788 503.501 149.869 503.117 150.112C502.732 150.356 502.459 150.741 502.358 151.185L492.682 193.358C492.629 193.576 492.621 193.803 492.656 194.025C492.692 194.247 492.772 194.459 492.89 194.65C493.009 194.841 493.164 195.007 493.347 195.137C493.53 195.268 493.737 195.361 493.956 195.411L498.676 196.52L499.927 196.142C504.334 194.803 508.31 192.324 511.451 188.955C514.592 185.585 516.788 181.446 517.815 176.956Z" fill="black"/>
<path d="M616.463 211.812L644.169 91.2408L633.974 88.8809L604.734 216.06C604.667 216.345 604.658 216.641 604.707 216.93C604.755 217.218 604.86 217.495 605.016 217.743C605.172 217.991 605.375 218.205 605.614 218.374C605.853 218.543 606.124 218.663 606.409 218.727C606.716 218.799 607.035 218.804 607.344 218.743C607.653 218.682 607.946 218.556 608.203 218.373L615.566 213.11C616.005 212.793 616.322 212.335 616.463 211.812Z" fill="#111111"/>
<path d="M725.966 236.992L753.814 116.421L743.595 114.061L714.378 241.24C714.244 241.813 714.342 242.415 714.652 242.915C714.962 243.416 715.458 243.772 716.03 243.907C716.337 243.98 716.656 243.986 716.966 243.925C717.275 243.864 717.568 243.737 717.824 243.553L725.211 238.29C725.597 237.951 725.862 237.495 725.966 236.992Z" fill="#111111"/>
<path d="M835.492 262.174L863.199 141.602L853.004 139.242L823.763 266.422C823.697 266.707 823.688 267.002 823.736 267.291C823.785 267.58 823.89 267.856 824.046 268.104C824.202 268.352 824.405 268.566 824.644 268.735C824.883 268.904 825.153 269.024 825.439 269.088C825.746 269.152 826.063 269.153 826.371 269.092C826.679 269.031 826.972 268.91 827.233 268.734L834.619 263.448C835.045 263.133 835.353 262.684 835.492 262.174Z" fill="#111111"/>
<path d="M944.972 287.332L972.678 166.784L962.483 164.424L933.243 291.603C933.138 292.18 933.252 292.774 933.562 293.272C933.872 293.769 934.355 294.133 934.918 294.294C935.227 294.362 935.547 294.364 935.856 294.299C936.165 294.234 936.457 294.103 936.712 293.916L944.075 288.653C944.519 288.33 944.836 287.863 944.972 287.332Z" fill="#111111"/>
<path d="M1072.18 230.172L1081.89 187.945L524.746 59.831L515.036 102.058L1072.18 230.172Z" fill="#111111"/>
<path opacity="0.7" d="M1072.18 230.172L1081.89 187.945L524.746 59.831L515.036 102.058L1072.18 230.172Z" fill="white"/>
<path opacity="0.2" d="M1076.28 212.44L1077.83 205.701L520.686 77.5869L519.137 84.3257L1076.28 212.44Z" fill="black"/>
<path d="M506.936 186.631L535.492 62.3541L525.297 59.9941L495.207 190.879C495.102 191.455 495.216 192.05 495.526 192.547C495.835 193.044 496.319 193.409 496.882 193.569C497.191 193.638 497.511 193.639 497.82 193.574C498.129 193.509 498.421 193.379 498.676 193.192L506.063 187.929C506.493 187.608 506.801 187.15 506.936 186.631Z" fill="#111111"/>
<path d="M538.867 85.364C539.897 80.8691 539.722 76.1817 538.359 71.7764C536.995 67.371 534.492 63.4042 531.102 60.2774L530.158 59.4042L525.438 58.295C525.22 58.2425 524.993 58.2339 524.771 58.2697C524.549 58.3055 524.337 58.385 524.146 58.5035C523.955 58.6221 523.789 58.7773 523.659 58.9602C523.528 59.1432 523.435 59.3502 523.385 59.5694L513.615 101.766C513.562 101.984 513.554 102.211 513.59 102.433C513.625 102.655 513.705 102.868 513.823 103.058C513.942 103.249 514.097 103.415 514.28 103.546C514.463 103.676 514.67 103.769 514.889 103.819L519.609 104.905L520.836 104.551C525.267 103.226 529.268 100.754 532.434 97.3846C535.601 94.015 537.82 89.8679 538.867 85.364Z" fill="#111111"/>
<path opacity="0.1" d="M538.867 85.364C539.897 80.8691 539.722 76.1817 538.359 71.7764C536.995 67.371 534.492 63.4042 531.102 60.2774L530.158 59.4042L525.438 58.295C525.22 58.2425 524.993 58.2339 524.771 58.2697C524.549 58.3055 524.337 58.385 524.146 58.5035C523.955 58.6221 523.789 58.7773 523.659 58.9602C523.528 59.1432 523.435 59.3502 523.385 59.5694L513.615 101.766C513.562 101.984 513.554 102.211 513.59 102.433C513.625 102.655 513.705 102.868 513.823 103.058C513.942 103.249 514.097 103.415 514.28 103.546C514.463 103.676 514.67 103.769 514.889 103.819L519.609 104.905L520.836 104.551C525.267 103.226 529.268 100.754 532.434 97.3846C535.601 94.015 537.82 89.8679 538.867 85.364Z" fill="white"/>
<path d="M737.884 295.992C736.636 295.868 735.379 295.868 734.131 295.992C725.029 297.02 715.998 298.597 707.086 300.712C686.837 304.984 664.606 310.719 664.606 310.719L654.694 281.832C654.694 281.832 719.995 244.073 730.591 247.164C730.591 247.164 748.315 297.574 737.884 295.992Z" fill="#263238"/>
<path d="M887.743 325.375C887.743 325.375 905.254 345.553 903.271 371.513C901.289 397.472 835.375 437.592 835.375 437.592L826.973 424.612C826.973 424.612 879.483 380.363 880.663 371.513C881.843 362.663 869.76 343.193 869.76 343.193L887.743 325.375Z" fill="#B97964"/>
<path d="M829.333 420.079C829.333 420.079 840.071 434.475 839.552 436.316C839.033 438.157 830.348 443.561 830.348 443.561C830.348 443.561 831.811 452.152 831.811 453.709C831.811 457.556 824.944 462.37 823.174 461.19C816.825 456.942 814.512 445.449 813.332 440.186C812.152 434.924 826.242 418.498 829.333 420.079Z" fill="#111111"/>
<path opacity="0.7" d="M829.333 420.079C829.333 420.079 840.071 434.475 839.552 436.316C839.033 438.157 830.348 443.561 830.348 443.561C830.348 443.561 831.811 452.152 831.811 453.709C831.811 457.556 824.944 462.37 823.174 461.19C816.825 456.942 814.512 445.449 813.332 440.186C812.152 434.924 826.242 418.498 829.333 420.079Z" fill="white"/>
<path d="M733.707 838.858L714.567 840.864L710.98 799.588L730.119 797.559L733.707 838.858Z" fill="#B97964"/>
<path d="M829.239 837.467H810.689L809.155 794.492H827.728L829.239 837.467Z" fill="#B97964"/>
<path d="M808.093 835.319H830.631C831.001 835.317 831.361 835.442 831.649 835.675C831.937 835.907 832.136 836.232 832.212 836.594L835.87 853.114C835.946 853.514 835.933 853.927 835.832 854.322C835.732 854.717 835.545 855.085 835.286 855.4C835.027 855.716 834.702 855.97 834.334 856.146C833.966 856.322 833.564 856.414 833.156 856.418C825.864 856.3 820.554 855.851 811.397 855.851C805.757 855.851 788.741 856.441 780.953 856.441C773.166 856.441 772.151 848.748 775.337 848.04C789.638 844.924 800.4 840.606 804.978 836.499C805.825 835.718 806.941 835.296 808.093 835.319Z" fill="#263238"/>
<path d="M801.981 838.576C800.721 838.671 799.465 838.339 798.417 837.632C798.079 837.347 797.817 836.982 797.656 836.57C797.495 836.157 797.44 835.711 797.497 835.272C797.487 835.016 797.554 834.763 797.689 834.544C797.823 834.326 798.019 834.152 798.252 834.045C800.305 832.983 806.3 836.665 806.96 837.089C807.039 837.125 807.103 837.187 807.142 837.264C807.18 837.342 807.191 837.43 807.173 837.514C807.162 837.603 807.124 837.686 807.065 837.754C807.007 837.821 806.929 837.869 806.842 837.892C805.252 838.298 803.622 838.527 801.981 838.576ZM799.22 834.729C799.023 834.709 798.825 834.75 798.653 834.847C798.535 834.847 798.394 835.013 798.37 835.367C798.333 835.658 798.368 835.954 798.47 836.23C798.573 836.505 798.741 836.752 798.96 836.948C801.041 837.891 803.403 838.01 805.568 837.278C803.638 836.024 801.481 835.158 799.22 834.729Z" fill="#111111"/>
<path d="M806.725 837.915H806.512C804.6 836.876 800.895 832.793 801.273 830.835C801.338 830.508 801.516 830.214 801.774 830.003C802.032 829.792 802.355 829.677 802.689 829.678C803.022 829.635 803.361 829.662 803.682 829.76C804.004 829.858 804.301 830.023 804.553 830.245C806.701 831.991 807.149 837.325 807.173 837.584C807.174 837.664 807.155 837.742 807.118 837.812C807.081 837.882 807.027 837.942 806.96 837.985C806.876 837.987 806.794 837.962 806.725 837.915ZM802.996 830.386H802.783C802.217 830.386 802.17 830.717 802.146 830.835C801.91 832.038 804.27 835.13 806.182 836.569C806.062 834.455 805.296 832.429 803.987 830.764C803.717 830.516 803.362 830.381 802.996 830.386Z" fill="#111111"/>
<path d="M712.538 834.729H735.075C735.445 834.727 735.805 834.852 736.093 835.085C736.381 835.317 736.58 835.642 736.657 836.004L740.315 852.524C740.391 852.924 740.378 853.337 740.277 853.732C740.176 854.127 739.989 854.495 739.73 854.811C739.472 855.126 739.147 855.38 738.779 855.556C738.411 855.732 738.008 855.824 737.601 855.828C730.308 855.71 724.998 855.261 715.842 855.261C710.201 855.261 693.186 855.851 685.398 855.851C677.61 855.851 676.595 848.158 679.781 847.45C694.083 844.335 704.844 840.016 709.422 835.909C710.269 835.129 711.386 834.706 712.538 834.729Z" fill="#263238"/>
<path d="M706.402 837.986C705.141 838.082 703.886 837.749 702.838 837.042C702.499 836.758 702.237 836.392 702.077 835.98C701.916 835.567 701.861 835.121 701.918 834.682C701.908 834.426 701.975 834.173 702.109 833.954C702.244 833.736 702.44 833.562 702.673 833.455C704.726 832.393 710.72 836.075 711.381 836.5C711.46 836.535 711.524 836.597 711.562 836.674C711.601 836.752 711.612 836.84 711.593 836.924C711.582 837.013 711.545 837.096 711.486 837.164C711.427 837.231 711.35 837.279 711.263 837.302C709.673 837.708 708.042 837.937 706.402 837.986ZM703.64 834.069C703.444 834.048 703.246 834.089 703.074 834.187C702.956 834.187 702.814 834.352 702.791 834.706C702.754 834.998 702.788 835.294 702.891 835.569C702.994 835.845 703.162 836.091 703.381 836.287C705.462 837.231 707.824 837.349 709.989 836.618C708.058 835.363 705.902 834.497 703.64 834.069Z" fill="#111111"/>
<path d="M711.145 837.325H710.933C709.021 836.286 705.316 832.204 705.694 830.245C705.759 829.918 705.936 829.624 706.194 829.413C706.453 829.202 706.776 829.087 707.11 829.088C707.443 829.045 707.781 829.073 708.103 829.17C708.424 829.268 708.721 829.433 708.974 829.655C711.122 831.401 711.57 836.735 711.594 836.994C711.595 837.074 711.576 837.152 711.539 837.222C711.502 837.292 711.447 837.352 711.381 837.396C711.297 837.397 711.214 837.373 711.145 837.325ZM707.416 829.796H707.204C706.638 829.796 706.59 830.127 706.567 830.245C706.331 831.448 708.691 834.54 710.602 835.98C710.483 833.865 709.717 831.839 708.408 830.174C708.137 829.927 707.783 829.792 707.416 829.796Z" fill="#111111"/>
<path opacity="0.2" d="M730.119 797.559L710.98 799.588L712.844 820.875L731.984 818.869L730.119 797.559Z" fill="black"/>
<path opacity="0.2" d="M827.728 794.516H809.155L809.958 816.676H828.531L827.728 794.516Z" fill="black"/>
<path d="M820.058 417.531H721.6C712.16 468.648 682.943 649.565 703.971 810.775L737.294 806.645C737.294 806.645 734.202 592.642 763.631 513.535C767.03 555.873 771.042 600.855 774.534 624.879C783.101 683.879 801.438 812.828 801.438 812.828H835.375C835.375 812.828 828.436 689.401 825.227 631.416C821.71 568.476 820.2 430.511 820.058 417.531Z" fill="#111111"/>
<path opacity="0.2" d="M763.631 513.536C758.786 527.404 755.107 541.653 752.634 556.134C749.872 518.374 760.894 478.49 760.894 478.49L763.631 513.536Z" fill="black"/>
<path d="M700.148 818.539L741.4 812.403L740.149 800.98L697.221 806.597L700.148 818.539Z" fill="#111111"/>
<path opacity="0.6" d="M700.148 818.539L741.4 812.403L740.149 800.98L697.221 806.597L700.148 818.539Z" fill="white"/>
<path d="M797.355 813.111H837.381V801.146L795.845 800.367L797.355 813.111Z" fill="#111111"/>
<path opacity="0.6" d="M797.355 813.111H837.381V801.146L795.845 800.367L797.355 813.111Z" fill="white"/>
<path d="M720.774 418.711H819.893V430.511L719.5 429.284L720.774 418.711Z" fill="#263238"/>
<path d="M788.033 413.402H784.493V434.359H788.033V413.402Z" fill="#111111"/>
<path d="M737.884 413.402H734.344V434.359H737.884V413.402Z" fill="#111111"/>
<path opacity="0.2" d="M734.131 295.991C725.029 297.019 715.998 298.596 707.086 300.711C710.744 284.899 730.214 271.967 730.214 271.967L734.131 295.991Z" fill="black"/>
<path d="M765.967 416.658H747.63V429.874H765.967V416.658Z" fill="white"/>
<path d="M839.882 255.991C839.882 255.991 836.885 271.048 833.227 292.925C831.575 302.86 829.781 314.164 828.059 326.177C823.622 357.14 819.704 392.374 820.058 418.712H720.774C720.774 418.712 714.331 308.052 730.591 247.165C730.591 247.165 793.225 244.215 839.882 255.991Z" fill="#263238"/>
<path d="M804.27 249.383C795.231 257.596 773.095 254.552 773.095 254.552C773.095 254.552 759.265 250.776 762.168 246.457C770.31 245.112 774.251 241.312 775.88 236.451C776.771 233.437 777.052 230.276 776.706 227.152C776.57 225.411 776.342 223.678 776.021 221.96L803.373 201.594C799.81 215.069 795.42 239.684 804.27 249.383Z" fill="#B97964"/>
<path opacity="0.2" d="M797.072 214.572C795.987 231.092 782.487 235.529 775.832 236.449C776.724 233.436 777.005 230.274 776.658 227.151L797.072 214.572Z" fill="black"/>
<path d="M800.235 238.951L774.062 250.751L772.528 241.311L762.923 244.686C761.241 245.269 759.806 246.406 758.854 247.911C757.902 249.416 757.49 251.199 757.684 252.969L758.746 263.353L772.033 256.085L778.641 265.525L810.076 250.397L800.235 238.951Z" fill="#263238"/>
<path opacity="0.2" d="M800.235 238.951L774.062 250.751L772.528 241.311L762.923 244.686C761.241 245.269 759.806 246.406 758.854 247.911C757.902 249.416 757.49 251.199 757.684 252.969L758.746 263.353L772.033 256.085L778.641 265.525L810.076 250.397L800.235 238.951Z" fill="white"/>
<path d="M829.711 253.702C829.711 253.702 806.559 331.582 826.997 345.553C826.997 345.553 824.165 409.603 820.082 418.712C787.004 420.508 753.852 420.508 720.774 418.712C718.098 394.423 717.049 369.982 717.635 345.553C717.635 345.553 725.093 336.113 725.093 329.033C725.093 321.953 729.411 265.313 743.571 246.434H751.454C751.454 246.434 740.055 269.632 741.613 290.093C741.613 290.093 776.233 295.993 801.415 292.453C801.415 292.453 808.872 264.912 817.132 251.154L829.711 253.702Z" fill="#111111"/>
<path opacity="0.2" d="M737.884 350.271H796.293C796.293 350.271 799.833 398.25 759.666 395.111C728.963 392.751 737.884 350.271 737.884 350.271Z" fill="black"/>
<path d="M757.307 158.406C757.307 158.406 749.495 183.068 761.366 194.892C773.236 206.715 780.647 159.704 780.647 159.704L757.307 158.406Z" fill="#263238"/>
<path d="M800.73 216.556C799.697 218.188 798.494 219.707 797.143 221.087C793.676 224.802 789.085 227.276 784.075 228.129C779.065 228.982 773.914 228.166 769.413 225.807C763.542 222.863 759.005 217.803 756.716 211.647C756.392 210.79 756.116 209.915 755.89 209.027C755.334 206.853 754.916 204.646 754.64 202.419C752.492 186.065 756.079 164.282 771.773 157.58C774.806 156.27 778.068 155.571 781.372 155.524C784.676 155.477 787.957 156.083 791.026 157.306C794.096 158.529 796.893 160.346 799.259 162.653C801.625 164.96 803.512 167.711 804.813 170.748C806.393 174.38 807.081 178.337 806.819 182.289C806.087 197.935 806.229 208.06 800.73 216.556Z" fill="#B97964"/>
<path opacity="0.1" d="M800.73 216.555C799.697 218.188 798.495 219.706 797.143 221.086C793.676 224.802 789.085 227.276 784.075 228.129C779.065 228.981 773.914 228.165 769.413 225.806C763.542 222.862 759.005 217.803 756.716 211.646C756.392 210.79 756.116 209.915 755.89 209.027C755.334 206.853 754.916 204.646 754.64 202.419C757.374 204.034 760.425 205.04 763.584 205.369C765.744 205.15 767.904 205.785 769.602 207.139C775.549 203.575 785.131 203.387 789.544 202.277C793.957 201.168 795.113 184.105 795.113 184.105L800.73 190.265C803.161 201.428 802.901 210.089 800.73 216.555Z" fill="black"/>
<path d="M778.971 187.905C778.971 189.368 778.216 190.619 777.225 190.619C776.234 190.619 775.431 189.416 775.407 187.929C775.384 186.442 776.186 185.215 777.154 185.215C778.122 185.215 778.924 186.371 778.971 187.905Z" fill="#263238"/>
<path d="M762.05 188.118C762.168 189.605 761.271 190.832 760.303 190.832C759.336 190.832 758.534 189.629 758.486 188.142C758.439 186.655 759.265 185.428 760.233 185.428C761.2 185.428 762.026 186.702 762.05 188.118Z" fill="#263238"/>
<path d="M767.431 188.779C765.678 193.381 763.296 197.718 760.351 201.665C761.389 202.391 762.574 202.88 763.822 203.097C765.07 203.313 766.351 203.251 767.572 202.916L767.431 188.779Z" fill="#A24E3F"/>
<path d="M784.139 182.359C783.981 182.38 783.821 182.361 783.672 182.303C783.523 182.245 783.392 182.151 783.29 182.028C782.635 181.14 781.782 180.417 780.799 179.918C779.815 179.418 778.729 179.155 777.626 179.149C777.51 179.162 777.394 179.151 777.282 179.117C777.171 179.084 777.069 179.027 776.98 178.952C776.892 178.877 776.819 178.784 776.768 178.68C776.717 178.576 776.687 178.463 776.682 178.347C776.662 178.119 776.732 177.892 776.878 177.715C777.024 177.539 777.233 177.427 777.461 177.403C778.836 177.391 780.195 177.706 781.426 178.322C782.657 178.937 783.724 179.835 784.54 180.943C784.687 181.121 784.757 181.351 784.735 181.581C784.713 181.811 784.601 182.022 784.422 182.17C784.338 182.247 784.243 182.31 784.139 182.359Z" fill="#263238"/>
<path d="M770.192 210.631C772.35 210.95 774.554 210.735 776.61 210.007C778.667 209.279 780.514 208.059 781.992 206.454C782.073 206.363 782.115 206.244 782.108 206.122C782.102 206 782.047 205.886 781.956 205.805C781.866 205.724 781.746 205.682 781.625 205.688C781.503 205.695 781.389 205.75 781.307 205.84C779.913 207.282 778.201 208.379 776.308 209.042C774.415 209.706 772.394 209.919 770.404 209.663C770.287 209.655 770.17 209.688 770.075 209.757C769.98 209.826 769.913 209.927 769.885 210.041C769.875 210.1 769.877 210.16 769.89 210.219C769.904 210.277 769.929 210.332 769.964 210.38C770 210.429 770.044 210.469 770.095 210.5C770.147 210.531 770.203 210.552 770.263 210.56L770.192 210.631Z" fill="#263238"/>
<path d="M754.711 182.383C754.541 182.429 754.361 182.429 754.191 182.383C753.982 182.285 753.819 182.11 753.735 181.894C753.651 181.679 753.654 181.44 753.743 181.226C754.304 179.947 755.166 178.822 756.255 177.947C757.343 177.072 758.627 176.473 759.997 176.199C760.228 176.172 760.46 176.236 760.645 176.377C760.83 176.518 760.953 176.725 760.988 176.955C761.009 177.184 760.944 177.414 760.804 177.597C760.664 177.781 760.46 177.905 760.233 177.946C759.161 178.193 758.162 178.686 757.314 179.387C756.466 180.087 755.793 180.976 755.348 181.981C755.275 182.088 755.18 182.179 755.071 182.248C754.961 182.317 754.839 182.363 754.711 182.383Z" fill="#263238"/>
<path d="M793.013 159.656L791.739 167.704C793.085 168.407 794.116 169.592 794.628 171.023C795.14 172.453 795.094 174.023 794.5 175.421C791.644 182.123 795.161 192.838 800.234 197.227C800.234 197.227 800.494 194.277 802.948 195.056C805.403 195.835 804.199 211.175 799.102 218.349C799.102 218.349 806.677 211.977 811.374 195.976C815.716 181.203 816.636 168.789 813.734 162.937L793.013 159.656Z" fill="#263238"/>
<path d="M813.403 165.249C813.403 165.249 821.592 152.599 799.55 145.944C777.508 139.289 762.168 148.752 762.168 148.752C762.168 148.752 747.819 165.886 766.888 168.694C785.603 171.408 813.403 165.249 813.403 165.249Z" fill="#263238"/>
<path d="M816.66 197.627C814.674 201.811 811.109 205.036 806.748 206.595C800.966 208.625 797.686 203.527 798.96 197.863C800.116 192.813 804.506 185.544 810.5 186.063C816.495 186.583 819.044 192.459 816.66 197.627Z" fill="#B97964"/>
<path d="M804.388 167.02C804.388 167.02 797.969 228.119 766.935 224.084L770.664 226.609C770.664 226.609 798.559 230.597 808.424 167.61L804.388 167.02Z" fill="#263238"/>
<path opacity="0.2" d="M804.388 167.02C804.388 167.02 797.969 228.119 766.935 224.084L770.664 226.609C770.664 226.609 798.559 230.597 808.424 167.61L804.388 167.02Z" fill="black"/>
<path d="M819.327 172.163C810.17 169.804 780.363 174.783 766.345 174.169C752.327 173.556 747.772 171.267 745.483 169.284C743.194 167.302 751.595 164.564 751.595 164.564C751.595 164.564 752.704 143.325 770.121 133.601C775.427 130.751 781.308 129.137 787.325 128.881C791.89 128.48 796.489 129.001 800.848 130.415C821.899 137.495 820.294 165.815 820.294 165.815C820.294 165.815 828.507 174.405 819.327 172.163Z" fill="#111111"/>
<path opacity="0.2" d="M819.327 172.164C810.17 169.804 780.363 174.783 766.345 174.17C752.327 173.556 747.772 171.267 745.483 169.285C743.194 167.302 751.595 164.565 751.595 164.565C751.595 164.565 760.351 170.559 769.319 168.86C778.287 167.161 804.128 160.104 820.318 165.815C820.318 165.933 828.507 174.406 819.327 172.164Z" fill="black"/>
<path opacity="0.2" d="M800.872 130.439C791.927 131.879 784.352 140.092 780.953 147.809C776.375 158.028 760.398 169.45 762.451 146.865C762.688 144.245 763.497 141.71 764.823 139.438C766.148 137.167 767.957 135.214 770.121 133.72C775.427 130.869 781.308 129.256 787.325 129C791.892 128.564 796.499 129.054 800.872 130.439Z" fill="black"/>
<path d="M672.088 313.078L656.559 276.971L649.809 281.903L662.317 314.966L672.088 313.078Z" fill="#263238"/>
<path opacity="0.2" d="M672.088 313.078L656.559 276.971L649.809 281.903L662.317 314.966L672.088 313.078Z" fill="white"/>
<path d="M644.169 183.775C644.169 183.775 643.296 190.407 646.033 191.091C650.928 192.474 655.911 193.523 660.948 194.23C663.308 194.23 664.913 184.79 664.913 183.775C664.913 182.761 646.222 176.955 644.169 183.775Z" fill="#111111"/>
<path opacity="0.7" d="M644.169 183.775C644.169 183.775 643.296 190.407 646.033 191.091C650.928 192.474 655.911 193.523 660.948 194.23C663.308 194.23 664.913 184.79 664.913 183.775C664.913 182.761 646.222 176.955 644.169 183.775Z" fill="white"/>
<path opacity="0.2" d="M833.227 292.924C831.575 302.86 829.781 314.164 828.059 326.177C820.271 311.851 826.477 288.016 826.477 288.016L833.227 292.924Z" fill="black"/>
<path d="M839.882 255.99C839.882 255.99 853.83 260.592 903.271 341.61L874.763 359.121C874.763 359.121 839.08 310.152 829.711 307.792C829.711 307.792 817.981 267.389 839.882 255.99Z" fill="#263238"/>
<path d="M901.902 336.514L869.76 359.122L875.943 364.739L905.749 345.67L901.902 336.514Z" fill="#263238"/>
<path opacity="0.2" d="M901.902 336.514L869.76 359.122L875.943 364.739L905.749 345.67L901.902 336.514Z" fill="white"/>
<path d="M130.354 856.441H147.416L186.757 500.461H169.695L130.354 856.441Z" fill="#263238"/>
<path opacity="0.1" d="M175.925 598.235L162.261 721.496L147.416 855.307H130.354L145.198 721.402L160.16 586.27H160.184L175.925 598.235Z" fill="white"/>
<path d="M411.64 856.441H428.679L468.02 500.461H450.981L411.64 856.441Z" fill="#263238"/>
<path opacity="0.1" d="M435.735 792.13L428.679 855.307H411.64L419.994 780.07L435.735 792.13Z" fill="white"/>
<path d="M145.198 722.156H443.641L484.469 352.771H186.026L145.198 722.156Z" fill="#263238"/>
<path opacity="0.1" d="M341.407 723.148H145.198L160.184 587.119L175.925 599.155L341.407 723.148Z" fill="white"/>
<path d="M541.109 856.441H524.046L484.705 500.461H501.744L541.109 856.441Z" fill="#263238"/>
<path opacity="0.2" d="M541.109 856.441H524.046L484.705 500.461H501.744L541.109 856.441Z" fill="white"/>
<path d="M259.822 856.441H242.783L203.442 500.461H220.481L259.822 856.441Z" fill="#263238"/>
<path opacity="0.2" d="M259.822 856.441H242.783L203.442 500.461H220.481L259.822 856.441Z" fill="white"/>
<path d="M526.264 722.156H227.821L186.993 352.771H485.437L526.264 722.156Z" fill="#111111"/>
<path opacity="0.6" d="M526.264 722.156H227.821L186.993 352.771H485.437L526.264 722.156Z" fill="white"/>
<path d="M485.342 352.631L489 385.671H190.675L187.017 352.631H485.342Z" fill="#111111"/>
<path opacity="0.2" d="M485.342 352.631L489 385.671H190.675L187.017 352.631H485.342Z" fill="white"/>
<path d="M214.369 352.631L207.973 385.505L207.95 385.671H197.991L198.014 385.505L204.41 352.631H214.369Z" fill="#263238"/>
<path d="M245.639 352.631L239.22 385.505L239.196 385.671H229.237L229.261 385.505L235.68 352.631H245.639Z" fill="#263238"/>
<path d="M276.885 352.631L270.49 385.505L270.466 385.671H260.507L260.53 385.505L266.926 352.631H276.885Z" fill="#263238"/>
<path d="M308.155 352.631L301.736 385.505L301.712 385.671H291.777L291.824 385.505L298.219 352.631H308.155Z" fill="#263238"/>
<path d="M339.424 352.631L333.029 385.505L333.005 385.671H323.046L323.07 385.505L329.465 352.631H339.424Z" fill="#263238"/>
<path d="M370.694 352.631L364.275 385.505L364.251 385.671H354.316L354.34 385.505L360.735 352.631H370.694Z" fill="#263238"/>
<path d="M401.94 352.631L395.545 385.505L395.521 385.671H385.586L385.609 385.505L392.005 352.631H401.94Z" fill="#263238"/>
<path d="M433.234 352.631L426.815 385.505L426.791 385.671H416.855L416.879 385.505L423.275 352.631H433.234Z" fill="#263238"/>
<path d="M464.48 352.631L458.085 385.505L458.061 385.671H448.102L448.125 385.505L454.545 352.631H464.48Z" fill="#263238"/>
<path d="M485.767 356.43L489 385.67H479.442L485.767 356.43Z" fill="#263238"/>
<path d="M227.986 723.147L224.328 690.107H522.653L526.288 723.147H227.986Z" fill="#111111"/>
<path opacity="0.2" d="M227.986 723.147L224.328 690.107H522.653L526.288 723.147H227.986Z" fill="white"/>
<path d="M498.959 723.147L505.355 690.273L505.378 690.107H515.338L515.314 690.273L508.895 723.147H498.959Z" fill="#263238"/>
<path d="M467.689 723.147L474.109 690.273L474.132 690.107H484.068L484.044 690.273L477.649 723.147H467.689Z" fill="#263238"/>
<path d="M436.443 723.147L442.839 690.273L442.863 690.107H452.822L452.798 690.273L446.379 723.147H436.443Z" fill="#263238"/>
<path d="M405.174 723.147L411.593 690.273L411.616 690.107H421.528L421.505 690.273L415.109 723.147H405.174Z" fill="#263238"/>
<path d="M373.904 723.147L380.299 690.273L380.323 690.107H390.282L390.258 690.273L383.839 723.147H373.904Z" fill="#263238"/>
<path d="M342.634 723.147L349.053 690.273L349.077 690.107H359.012L358.989 690.273L352.593 723.147H342.634Z" fill="#263238"/>
<path d="M311.388 723.147L317.784 690.273L317.807 690.107H327.743L327.719 690.273L321.3 723.147H311.388Z" fill="#263238"/>
<path d="M280.094 723.147L286.49 690.273L286.537 690.107H296.473L296.449 690.273L290.054 723.147H280.094Z" fill="#263238"/>
<path d="M248.848 723.147L255.244 690.273L255.268 690.107H265.227L265.179 690.273L258.784 723.147H248.848Z" fill="#263238"/>
<path d="M227.561 719.348L224.328 690.107H233.886L227.561 719.348Z" fill="#263238"/>
<path d="M302.184 485.168L277.758 542.752L283.847 611.356L250.713 661.789H257.816L294.443 616.643L299.588 572.416L330.315 616.949L327.105 661.789H334.539L342.351 607.179L314.763 549.595L335.578 510.679L302.184 485.168Z" fill="#111111"/>
<path d="M315.636 501.31C315.636 501.31 320.498 476.177 330.339 473.793C333.831 472.944 346.151 484.838 346.08 493.216C346.009 501.594 319.577 506.408 319.577 506.408L315.636 501.31Z" fill="#111111"/>
<path d="M302.184 485.168C302.184 485.168 272.236 482.808 268.059 484.012C263.882 485.216 267.02 515.919 267.02 515.919L271.976 517.264C271.976 517.264 271.669 491.989 273.18 492.012C274.69 492.036 300.485 499.446 300.485 499.446L302.184 485.168Z" fill="#111111"/>
<path d="M335.601 510.607C338.976 513.109 328.521 555.707 328.521 555.707L338.787 578.032L336.427 579.519C336.427 579.519 321.63 560.639 319.908 556.509C316.415 548.344 322.834 520.472 322.834 520.472L335.601 510.607Z" fill="#111111"/>
<path d="M381.81 620.016L384.311 616.523L236.199 481.934L233.697 485.403L381.81 620.016Z" fill="#111111"/>
<path d="M383.721 607.65L374.942 618.672C374.942 618.672 387.309 632.029 397.575 631.25C397.575 631.25 397.457 621.409 383.721 607.65Z" fill="#111111"/>
<path d="M336.616 576.074C336.616 576.074 345.207 578.599 344.829 580.912C344.451 583.225 343.153 586.812 341.69 587.001C340.227 587.19 336.333 579.52 336.333 579.52L336.616 576.074Z" fill="#111111"/>
<path d="M267.422 513.109C267.422 513.109 266.053 517.121 270.466 521.629C274.879 526.136 276.791 521.629 276.791 521.629L267.422 513.109Z" fill="#111111"/>
<path d="M238.252 661.789H491.856L477.979 655.181C477.979 655.181 464.456 631.794 457.117 626.484C449.777 621.174 435.004 608.524 430.237 607.604C425.47 606.683 423.723 597.338 419.121 597.338C414.519 597.338 391.58 631.18 391.58 631.18C389.255 634.704 386.156 637.651 382.518 639.794C377.538 642.154 369.184 655.063 369.184 655.063C369.184 655.063 293.924 657.069 238.252 661.789Z" fill="#111111"/>
<g opacity="0.2">
<path d="M302.184 485.168L277.758 542.752L283.847 611.356L250.713 661.789H257.816L294.443 616.643L299.588 572.416L330.315 616.949L327.105 661.789H334.539L342.351 607.179L314.763 549.595L335.578 510.679L302.184 485.168Z" fill="black"/>
<path d="M315.636 501.31C315.636 501.31 320.497 476.177 330.338 473.793C333.831 472.944 346.15 484.838 346.079 493.216C346.009 501.594 319.577 506.408 319.577 506.408L315.636 501.31Z" fill="black"/>
<path d="M302.184 485.168C302.184 485.168 272.236 482.808 268.058 484.012C263.881 485.216 267.02 515.919 267.02 515.919L271.976 517.264C271.976 517.264 271.669 491.989 273.18 492.012C274.69 492.036 300.485 499.446 300.485 499.446L302.184 485.168Z" fill="black"/>
<path d="M335.601 510.609C338.976 513.111 328.521 555.709 328.521 555.709L338.787 578.034L336.427 579.521C336.427 579.521 321.63 560.641 319.907 556.511C316.415 548.346 322.834 520.474 322.834 520.474L335.601 510.609Z" fill="black"/>
<path d="M381.81 620.018L384.311 616.525L236.199 481.936L233.697 485.405L381.81 620.018Z" fill="black"/>
<path d="M383.721 607.65L374.942 618.672C374.942 618.672 387.308 632.029 397.574 631.25C397.574 631.25 397.456 621.409 383.721 607.65Z" fill="black"/>
<path d="M336.616 576.074C336.616 576.074 345.206 578.599 344.829 580.912C344.451 583.225 343.153 586.812 341.69 587.001C340.227 587.19 336.333 579.52 336.333 579.52L336.616 576.074Z" fill="black"/>
<path d="M267.421 513.111C267.421 513.111 266.053 517.123 270.466 521.631C274.879 526.138 276.79 521.631 276.79 521.631L267.421 513.111Z" fill="black"/>
<path d="M238.252 661.789H491.856L477.979 655.181C477.979 655.181 464.456 631.794 457.117 626.484C449.777 621.174 435.004 608.524 430.236 607.604C425.469 606.683 423.723 597.338 419.121 597.338C414.519 597.338 391.58 631.18 391.58 631.18C389.255 634.704 386.155 637.651 382.518 639.794C377.538 642.154 369.184 655.063 369.184 655.063C369.184 655.063 293.924 657.069 238.252 661.789Z" fill="black"/>
</g>
<path d="M615.471 786.869L592.155 816.817L583.801 815.543L608.392 786.869H615.471Z" fill="#111111"/>
<path opacity="0.3" d="M615.471 786.869L592.155 816.817L583.801 815.543L608.392 786.869H615.471Z" fill="black"/>
<path d="M608.392 758.549L585.075 788.497L576.721 787.223L601.312 758.549H608.392Z" fill="#111111"/>
<path opacity="0.3" d="M608.392 758.549L585.075 788.497L576.721 787.223L601.312 758.549H608.392Z" fill="black"/>
<path d="M541.344 743.209H440.644L464.267 805.583H564.968L541.344 743.209Z" fill="#111111"/>
<path opacity="0.3" d="M541.344 743.209H440.644L464.267 805.583H564.968L541.344 743.209Z" fill="black"/>
<path d="M619.531 781.984H459.548V790.032H619.531V781.984Z" fill="#111111"/>
<path opacity="0.2" d="M520.954 781.984H459.548V790.032H520.954V781.984Z" fill="black"/>
<path d="M610.091 758.359H450.108V766.407H610.091V758.359Z" fill="#111111"/>
<path opacity="0.2" d="M511.514 758.359H450.108V766.407H511.514V758.359Z" fill="black"/>
<path d="M440.809 743.633L435.216 750.123L456.456 805.748H464.763L440.809 743.633Z" fill="#111111"/>
<path d="M659.863 776.249L670.672 778.939C670.259 776.012 669.017 773.263 667.094 771.018C665.17 768.773 662.645 767.124 659.816 766.266C656.441 765.49 652.9 765.952 649.837 767.567C646.775 769.183 644.395 771.845 643.131 775.069C642.201 777.307 641.947 779.768 642.399 782.149L577.24 821.372C569.594 814.953 560.555 819.791 556.826 825.006L567.588 827.626C568.208 827.761 568.795 828.02 569.312 828.388C569.83 828.755 570.269 829.223 570.601 829.764C570.934 830.305 571.154 830.907 571.249 831.535C571.343 832.163 571.31 832.803 571.151 833.418C570.992 834.033 570.711 834.609 570.324 835.113C569.937 835.616 569.453 836.036 568.9 836.348C568.347 836.66 567.737 836.857 567.106 836.928C566.475 836.999 565.836 836.941 565.228 836.759L554.466 834.069C554.884 836.994 556.128 839.74 558.05 841.984C559.973 844.229 562.495 845.879 565.322 846.742C568.69 847.592 572.251 847.204 575.357 845.649C578.462 844.094 580.906 841.475 582.243 838.269C583.231 836.191 583.568 833.864 583.211 831.591L648.37 792.368C654.789 796.757 664.89 793.571 668.548 788.356L657.668 785.524C657.055 785.38 656.477 785.116 655.968 784.746C655.459 784.375 655.029 783.907 654.704 783.369C654.378 782.83 654.164 782.231 654.073 781.609C653.982 780.986 654.017 780.351 654.175 779.742C654.466 778.525 655.229 777.473 656.296 776.818C657.362 776.163 658.645 775.958 659.863 776.249Z" fill="#111111"/>
<path opacity="0.6" d="M659.863 776.249L670.672 778.939C670.259 776.012 669.017 773.263 667.094 771.018C665.17 768.773 662.645 767.124 659.816 766.266C656.441 765.49 652.9 765.952 649.837 767.567C646.775 769.183 644.395 771.845 643.131 775.069C642.201 777.307 641.947 779.768 642.399 782.149L577.24 821.372C569.594 814.953 560.555 819.791 556.826 825.006L567.588 827.626C568.208 827.761 568.795 828.02 569.312 828.388C569.83 828.755 570.269 829.223 570.601 829.764C570.934 830.305 571.154 830.907 571.249 831.535C571.343 832.163 571.31 832.803 571.151 833.418C570.992 834.033 570.711 834.609 570.324 835.113C569.937 835.616 569.453 836.036 568.9 836.348C568.347 836.66 567.737 836.857 567.106 836.928C566.475 836.999 565.836 836.941 565.228 836.759L554.466 834.069C554.884 836.994 556.128 839.74 558.05 841.984C559.973 844.229 562.495 845.879 565.322 846.742C568.69 847.592 572.251 847.204 575.357 845.649C578.462 844.094 580.906 841.475 582.243 838.269C583.231 836.191 583.568 833.864 583.211 831.591L648.37 792.368C654.789 796.757 664.89 793.571 668.548 788.356L657.668 785.524C657.055 785.38 656.477 785.116 655.968 784.746C655.459 784.375 655.029 783.907 654.704 783.369C654.378 782.83 654.164 782.231 654.073 781.609C653.982 780.986 654.017 780.351 654.175 779.742C654.466 778.525 655.229 777.473 656.296 776.818C657.362 776.163 658.645 775.958 659.863 776.249Z" fill="white"/>
<path d="M638.434 805.584H464.268V856.442H638.434V805.584Z" fill="#111111"/>
<path opacity="0.2" d="M532.754 805.584H464.268V856.442H532.754V805.584Z" fill="black"/>
<path d="M403.097 843.507L395.238 835.625C394.068 838.352 393.704 841.358 394.189 844.286C394.675 847.213 395.989 849.941 397.976 852.145C400.472 854.558 403.752 855.993 407.218 856.188C410.684 856.383 414.105 855.325 416.856 853.207C418.799 851.763 420.282 849.788 421.127 847.519L497.166 847.637C500.399 857.077 510.641 857.62 516.541 855.071L508.659 847.26C507.787 846.376 507.298 845.185 507.298 843.944C507.298 842.703 507.787 841.512 508.659 840.628C509.543 839.749 510.739 839.256 511.986 839.256C513.233 839.256 514.43 839.749 515.314 840.628L523.196 848.511C524.363 845.781 524.723 842.774 524.234 839.846C523.745 836.919 522.426 834.192 520.435 831.991C517.992 829.515 514.74 828.002 511.272 827.729C507.805 827.456 504.355 828.441 501.555 830.504C499.631 831.775 498.141 833.603 497.284 835.743L421.222 835.625C417.988 828.545 407.77 826.185 401.87 828.545L409.728 836.593C410.174 837.032 410.528 837.555 410.77 838.133C411.012 838.71 411.137 839.33 411.137 839.956C411.137 840.582 411.012 841.201 410.77 841.779C410.528 842.356 410.174 842.879 409.728 843.319C408.87 844.216 407.693 844.739 406.451 844.775C405.21 844.81 404.005 844.355 403.097 843.507Z" fill="#111111"/>
<path opacity="0.6" d="M403.097 843.507L395.238 835.625C394.068 838.352 393.704 841.358 394.189 844.286C394.675 847.213 395.989 849.941 397.976 852.145C400.472 854.558 403.752 855.993 407.218 856.188C410.684 856.383 414.105 855.325 416.856 853.207C418.799 851.763 420.282 849.788 421.127 847.519L497.166 847.637C500.399 857.077 510.641 857.62 516.541 855.071L508.659 847.26C507.787 846.376 507.298 845.185 507.298 843.944C507.298 842.703 507.787 841.512 508.659 840.628C509.543 839.749 510.739 839.256 511.986 839.256C513.233 839.256 514.43 839.749 515.314 840.628L523.196 848.511C524.363 845.781 524.723 842.774 524.234 839.846C523.745 836.919 522.426 834.192 520.435 831.991C517.992 829.515 514.74 828.002 511.272 827.729C507.805 827.456 504.355 828.441 501.555 830.504C499.631 831.775 498.141 833.603 497.284 835.743L421.222 835.625C417.988 828.545 407.77 826.185 401.87 828.545L409.728 836.593C410.174 837.032 410.528 837.555 410.77 838.133C411.012 838.71 411.137 839.33 411.137 839.956C411.137 840.582 411.012 841.201 410.77 841.779C410.528 842.356 410.174 842.879 409.728 843.319C408.87 844.216 407.693 844.739 406.451 844.775C405.21 844.81 404.005 844.355 403.097 843.507Z" fill="white"/>
</svg>
