<svg width="32" height="33" viewBox="0 0 32 33" fill="none" xmlns="http://www.w3.org/2000/svg">
<path fill-rule="evenodd" clip-rule="evenodd" d="M16.057 32.5745C16.0381 32.5746 16.019 32.5746 16 32.5746C7.16936 32.5746 0 25.4053 0 16.5746C0 7.74401 7.16936 0.574638 16 0.574638C24.8306 0.574638 31.9999 7.74399 32 16.5746V30.1082C32 31.4695 30.8948 32.5746 29.5336 32.5746C28.3187 32.5746 27.3324 31.5883 27.3324 30.3734V27.8652V16.5743C27.3322 10.3269 22.2572 5.25481 16.0063 5.25481C9.75521 5.25481 4.68015 10.3271 4.68015 16.5746C4.68015 22.8222 9.75521 27.8945 16.0063 27.8945C16.0231 27.8945 16.0615 27.8945 16.0669 27.8945C17.1445 27.8999 18.0176 28.7765 18.0176 29.8553V30.614C18.0176 31.6961 17.1391 32.5745 16.057 32.5745ZM25.0127 16.5746C25.0127 16.5746 25.0127 30.0973 25.0127 30.0973C25.0127 31.4646 23.9027 32.5746 22.5354 32.5746C21.3151 32.5746 20.3245 31.584 20.3245 30.3637V16.5746C20.3245 14.1933 18.4383 12.2597 16.057 12.2597C13.6757 12.2597 11.7424 14.193 11.7424 16.5743C11.7424 18.9556 13.6757 20.889 16.057 20.889C16.0631 20.889 16.0689 20.8889 16.0752 20.889C17.1489 20.8988 18.0176 21.7746 18.0176 22.8506V23.6142C18.0176 24.6963 17.139 25.5748 16.0569 25.5748C16.0569 25.5748 16.0231 25.5748 16.0062 25.5748C11.0354 25.5748 6.99974 21.5453 6.99974 16.582C6.99974 11.6188 11.0354 7.58923 16.0062 7.58923C20.9745 7.58923 25.0087 11.6148 25.0127 16.5746Z" fill="#542790"/>
</svg>
