<svg width="33" height="33" viewBox="0 0 33 33" fill="none" xmlns="http://www.w3.org/2000/svg">
<path d="M15.1508 0.299988C14.5276 0.299988 13.7798 0.393514 13.4058 0.455866C11.1312 0.829972 8.95009 1.73406 7.08055 3.01226C4.18275 4.97632 1.97045 7.938 0.879882 11.2738C-0.397641 15.2019 -0.0860504 19.5977 1.69002 23.2764C3.40377 26.768 6.42621 29.6362 10.0095 31.1014C13.0319 32.3485 16.4283 32.629 19.6065 31.912C23.4702 31.0391 26.9289 28.7009 29.2035 25.4898C30.8861 23.0893 31.9144 20.19 32.1013 17.2595C32.1013 17.0101 32.039 16.7607 31.852 16.5736C31.6651 16.3866 31.447 16.293 31.1977 16.293H31.0419C29.9202 16.293 28.2064 16.293 27.1782 16.293C26.7108 16.293 26.3057 16.6672 26.2746 17.1348C26.2434 17.6959 26.1499 18.2259 25.9941 18.7559C25.3709 21.2188 23.7818 23.4322 21.663 24.8351C19.4819 26.238 16.771 26.768 14.2471 26.3004C11.7233 25.8328 9.41748 24.3363 7.89068 22.2788C6.64432 20.5641 5.95882 18.413 5.95882 16.293C5.95882 13.5184 7.14286 10.8062 9.13705 8.90444C10.8196 7.31449 13.0008 6.34804 15.3066 6.16099C15.7739 6.12982 16.1478 5.72453 16.1478 5.2569V4.97632C16.1478 3.88518 16.1478 2.29522 16.1478 1.26643C16.1478 1.01703 16.0544 0.767621 15.8674 0.580568C15.6493 0.393514 15.4 0.299988 15.1508 0.299988ZM32.1013 5.47513C32.1013 2.63815 29.7955 0.331163 26.9601 0.331163C24.1246 0.331163 21.8188 2.63815 21.8188 5.47513C21.8188 8.3121 24.1246 10.6191 26.9601 10.6191C29.7955 10.6191 32.1013 8.3121 32.1013 5.47513Z" fill="#FE3E6D"/>
</svg>
