<svg width="32" height="32" viewBox="0 0 32 32" fill="none" xmlns="http://www.w3.org/2000/svg">
<path d="M10.1831 0.484855C10.1831 0.484855 9.69822 -6.51039e-06 8.97095 0C8.03 8.42346e-06 7.33467 0.624856 6.69273 1.63424C2.76711 7.8588 -0.0234283 21.3093 0.00126117 21.3333L16.0012 6.06061L10.1831 0.484855Z" fill="#FF61E6"/>
<path d="M21.8195 0.484855C21.8195 0.484855 22.3044 0 23.0316 0C23.9726 0 24.6679 0.624856 25.3099 1.63424C29.2355 7.8588 32.0261 21.3093 32.0012 21.3333L16.0013 6.06061L21.8195 0.484855Z" fill="#FF534E"/>
<path d="M16.0013 6.06061L0.00132418 21.3333C-0.119871 22.0606 8.10618 28.7079 13.1489 31.2782C13.9535 31.6849 15.1028 31.9925 16.0013 31.9999C16.906 32.0072 18.056 31.7118 18.8537 31.2782C23.8965 28.7079 32.1224 22.0606 32.0012 21.3333L16.0013 6.06061Z" fill="url(#paint0_linear_2_113)"/>
<defs>
<linearGradient id="paint0_linear_2_113" x1="2.42557" y1="25.697" x2="18.1832" y2="9.93938" gradientUnits="userSpaceOnUse">
<stop stop-color="#69008E"/>
<stop offset="1" stop-color="#FF2155"/>
</linearGradient>
</defs>
</svg>
