<svg width="32" height="32" viewBox="0 0 32 32" fill="none" xmlns="http://www.w3.org/2000/svg">
<g clip-path="url(#clip0_2_93)">
<path d="M28 0H4C1.79086 0 0 1.79086 0 4V28C0 30.2091 1.79086 32 4 32H28C30.2091 32 32 30.2091 32 28V4C32 1.79086 30.2091 0 28 0Z" fill="#FFD400"/>
<path d="M6.40002 23.08C6.40002 23.72 6.92002 24.28 7.60002 24.28C8.24002 24.28 8.80002 23.76 8.80002 23.08V11.4L23.48 23.6C23.92 23.96 24.2 24.24 24.8 24.24H24.88C25.56 24.24 26.08 23.72 26.08 23.04V9.12C26.08 8.48 25.56 7.92 24.88 7.92C24.24 7.92 23.68 8.44 23.68 9.12V20.64L9.20002 8.6C8.80002 8.24 8.48002 7.92 7.88002 7.92H7.64002C6.92002 7.92 6.40002 8.48 6.40002 9.16V23.08ZM13.36 16.52C12.68 16.52 12.16 17.04 12.16 17.72V24.88C12.16 25.52 12.68 26.08 13.36 26.08C14 26.08 14.56 25.56 14.56 24.88V17.68C14.56 17.04 14.04 16.52 13.36 16.52ZM19.16 21.28C18.48 21.28 17.96 21.8 17.96 22.48V24.88C17.96 25.52 18.48 26.08 19.16 26.08C19.8 26.08 20.36 25.56 20.36 24.88V22.48C20.32 21.8 19.8 21.28 19.16 21.28ZM19.16 6.4C18.48 6.4 17.96 6.92 17.96 7.6V14.36C17.96 15 18.48 15.56 19.16 15.56C19.8 15.56 20.36 15.04 20.36 14.36V7.6C20.32 6.92 19.8 6.4 19.16 6.4ZM13.36 6.4C12.68 6.4 12.16 6.92 12.16 7.6V9.6C12.16 10.24 12.68 10.8 13.36 10.8C14 10.8 14.56 10.28 14.56 9.6V7.6C14.56 6.92 14.04 6.4 13.36 6.4Z" fill="#1A1A13"/>
</g>
<defs>
<clipPath id="clip0_2_93">
<rect width="32" height="32" fill="white"/>
</clipPath>
</defs>
</svg>
