<svg width="32" height="32" viewBox="0 0 32 32" fill="none" xmlns="http://www.w3.org/2000/svg">
<path d="M25.1621 7.76753V6.39941H21.336V31.7617H25.1621V11.1125C25.707 10.4284 26.2578 10.0168 26.8723 9.95304C27.4868 9.88347 28.0317 10.0226 28.5128 10.4342V6.19651C27.1447 6.12695 25.9853 6.67188 25.1621 7.76753ZM17.5737 6.87478C16.8897 6.39362 16.136 6.19072 15.1795 6.19072C13.8114 6.19072 12.7157 6.73565 11.8984 7.76173V0.0399933H8.07226V22.0516C8.07226 22.6661 7.7998 23.2806 7.11574 23.4197C5.06357 23.7617 3.49255 25.4719 3.49255 27.6574C3.49255 29.982 5.4056 31.8951 7.73023 31.8951C8.75632 31.8951 9.7824 31.4835 10.4665 30.869L10.536 30.7994C10.6752 30.7298 10.7389 30.5965 10.8085 30.527C10.9476 30.3878 11.1505 30.3241 11.3534 30.3241C11.6259 30.3241 11.8346 30.3936 12.0375 30.527C12.8607 31.4835 13.9505 31.9646 15.2491 31.9646H15.3882C16.2752 31.9646 17.0983 31.7617 17.7128 31.2806C18.3273 30.869 18.8085 30.3241 19.081 29.7791C19.2839 29.2342 19.423 28.411 19.423 27.182V11.182C19.423 9.88347 19.2839 8.92695 19.0114 8.38202C18.6694 7.8313 18.2578 7.35594 17.5737 6.87478ZM15.5215 25.1994V26.6371C15.5215 27.1183 15.3824 27.5241 15.0404 27.7965C14.6288 28.2081 14.1534 28.3414 13.5389 28.2777C12.994 28.2081 12.3795 27.7965 11.8984 27.0487V11.182C12.3795 10.498 12.9244 10.0864 13.5389 10.0226C14.1534 9.95304 14.6983 10.0922 15.0404 10.5038C15.3824 10.7762 15.5215 11.1878 15.5215 11.6632V25.1994Z" fill="#95C11F"/>
</svg>
