<svg width="32" height="32" viewBox="0 0 32 32" fill="none" xmlns="http://www.w3.org/2000/svg">
<path fill-rule="evenodd" clip-rule="evenodd" d="M17.3679 9.98154L29.7766 17.2003V22.596L17.3679 15.392C16.9515 15.1462 16.4768 15.0167 15.9933 15.0167C15.5098 15.0167 15.0351 15.1462 14.6186 15.392L2.20996 22.596V17.2003L14.6186 9.98154C15.0351 9.73583 15.5098 9.60624 15.9933 9.60624C16.4768 9.60624 16.9515 9.73583 17.3679 9.98154ZM4.23887 25.61L14.5304 19.6262C14.9774 19.3681 15.4845 19.2322 16.0006 19.2322C16.5168 19.2322 17.0239 19.3681 17.4709 19.6262L27.7624 25.61L17.4709 31.6085C17.0239 31.8666 16.5168 32.0024 16.0006 32.0024C15.4845 32.0024 14.9774 31.8666 14.5304 31.6085L4.23887 25.61ZM17.3679 0.36629L29.7766 7.58508V12.9808L17.3679 5.77671C16.9515 5.531 16.4768 5.4014 15.9933 5.4014C15.5098 5.4014 15.0351 5.531 14.6186 5.77671L2.20996 12.9808V7.58508L14.6186 0.36629C15.0375 0.12783 15.5113 0.00244141 15.9933 0.00244141C16.4753 0.00244141 16.949 0.12783 17.3679 0.36629Z" fill="#0099FF"/>
</svg>
